<?xml version="1.0" encoding="UTF-8"?>
<svg width="133px" height="66px" viewBox="0 0 133 66" version="1.1" xmlns="http://www.w3.org/2000/svg" xmlns:xlink="http://www.w3.org/1999/xlink">
    <!-- Generator: Sketch 45 (43475) - http://www.bohemiancoding.com/sketch -->
    <title>Group 5</title>
    <desc>Created with Sketch.</desc>
    <defs></defs>
    <g id="Page-1" stroke="none" stroke-width="1" fill="none" fill-rule="evenodd">
        <g id="Artboard-2">
            <g id="Group-5">
                <g id="Group">
                    <circle id="Oval" fill="#FFFFFF" cx="33" cy="33" r="33"></circle>
                    <path d="M49,33.5 C49,24.425 41.575,17 32.5,17 C23.425,17 16,24.425 16,33.5 C16,36.14 16.66,38.615 17.815,40.925 C17.65,41.255 17.65,41.42 17.65,41.75 C17.65,43.565 19.135,45.05 20.95,45.05 C20.95,46.04 21.61,46.7 22.6,46.7 L22.6,48.35 C22.6,49.34 23.26,50 24.25,50 C25.24,50 25.9,49.34 25.9,48.35 L25.9,35.15 C25.9,34.16 25.24,33.5 24.25,33.5 C23.26,33.5 22.6,34.16 22.6,35.15 L22.6,36.8 C21.61,36.8 20.95,37.46 20.95,38.45 L20.29,38.45 C19.63,36.8 19.3,35.15 19.3,33.5 C19.3,26.24 25.24,20.3 32.5,20.3 C39.76,20.3 45.7,26.24 45.7,33.5 C45.7,35.315 45.37,36.965 44.71,38.45 L44.05,38.45 C44.05,37.46 43.39,36.8 42.4,36.8 L42.4,35.15 C42.4,34.16 41.74,33.5 40.75,33.5 C39.76,33.5 39.1,34.16 39.1,35.15 L39.1,48.35 C39.1,49.34 39.76,50 40.75,50 C41.74,50 42.4,49.34 42.4,48.35 L42.4,46.7 C43.39,46.7 44.05,46.04 44.05,45.05 C45.865,45.05 47.35,43.565 47.35,41.75 C47.35,41.42 47.35,41.255 47.185,40.925 C48.34,38.615 49,36.14 49,33.5 Z" id="Page-1" fill="#9B9B9B" transform="translate(32.500000, 33.500000) rotate(-20.000000) translate(-32.500000, -33.500000) "></path>
                </g>
                <g id="Group-2" transform="translate(67.000000, 0.000000)">
                    <circle id="Oval" fill="#FFFFFF" cx="33" cy="33" r="33"></circle>
                    <g id="Group-4" transform="translate(11.000000, 12.000000)" fill="#3AD3AA">
                        <path d="M38,21.5 C38,12.425 30.575,5 21.5,5 C12.425,5 5,12.425 5,21.5 C5,24.14 5.66,26.615 6.815,28.925 C6.65,29.255 6.65,29.42 6.65,29.75 C6.65,31.565 8.135,33.05 9.95,33.05 C9.95,34.04 10.61,34.7 11.6,34.7 L11.6,36.35 C11.6,37.34 12.26,38 13.25,38 C14.24,38 14.9,37.34 14.9,36.35 L14.9,23.15 C14.9,22.16 14.24,21.5 13.25,21.5 C12.26,21.5 11.6,22.16 11.6,23.15 L11.6,24.8 C10.61,24.8 9.95,25.46 9.95,26.45 L9.29,26.45 C8.63,24.8 8.3,23.15 8.3,21.5 C8.3,14.24 14.24,8.3 21.5,8.3 C28.76,8.3 34.7,14.24 34.7,21.5 C34.7,23.315 34.37,24.965 33.71,26.45 L33.05,26.45 C33.05,25.46 32.39,24.8 31.4,24.8 L31.4,23.15 C31.4,22.16 30.74,21.5 29.75,21.5 C28.76,21.5 28.1,22.16 28.1,23.15 L28.1,36.35 C28.1,37.34 28.76,38 29.75,38 C30.74,38 31.4,37.34 31.4,36.35 L31.4,34.7 C32.39,34.7 33.05,34.04 33.05,33.05 C34.865,33.05 36.35,31.565 36.35,29.75 C36.35,29.42 36.35,29.255 36.185,28.925 C37.34,26.615 38,24.14 38,21.5 Z" id="Page-1" transform="translate(21.500000, 21.500000) rotate(-20.000000) translate(-21.500000, -21.500000) "></path>
                        <g id="Group-3" transform="translate(28.060307, 28.842020) scale(-1, 1) rotate(20.000000) translate(-28.060307, -28.842020) translate(26.060307, 23.342020)">
                            <path d="M0.641543052,1.5350269 C0.408563755,1.5350269 0.220080232,1.66256005 0.220080232,1.81911067 L0.220080232,8.92607765 C0.220080232,9.08311555 0.409286676,9.21016142 0.641543052,9.21016142 C0.87452235,9.21016142 1.06300587,9.08262827 1.06300587,8.92607765 L1.06371072,1.81911067 C1.06371072,1.66254787 0.874504276,1.5350269 0.641543052,1.5350269 Z" id="Fill-2"></path>
                            <path d="M2.44016046,0.290222125 L2.44016046,10.4549662 C2.44016046,10.6153973 2.62952512,10.7451883 2.86197571,10.7451883 C3.09514982,10.7451883 3.28379095,10.6148995 3.28379095,10.4549662 L3.28379095,0.290721178 C3.28379095,0.130290071 3.09513173,1.3689723e-05 2.86197571,1.3689723e-05 C2.6288016,8.94134586e-14 2.44016046,0.130288826 2.44016046,0.290222125 Z" id="Fill-3"></path>
                        </g>
                        <g id="Group-3" transform="translate(20.939693, 31.157980) rotate(-20.000000) translate(-20.939693, -31.157980) translate(18.939693, 25.657980)">
                            <path d="M0.641543052,1.5350269 C0.408563755,1.5350269 0.220080232,1.66256005 0.220080232,1.81911067 L0.220080232,8.92607765 C0.220080232,9.08311555 0.409286676,9.21016142 0.641543052,9.21016142 C0.87452235,9.21016142 1.06300587,9.08262827 1.06300587,8.92607765 L1.06371072,1.81911067 C1.06371072,1.66254787 0.874504276,1.5350269 0.641543052,1.5350269 Z" id="Fill-2"></path>
                            <path d="M2.44016046,0.290222125 L2.44016046,10.4549662 C2.44016046,10.6153973 2.62952512,10.7451883 2.86197571,10.7451883 C3.09514982,10.7451883 3.28379095,10.6148995 3.28379095,10.4549662 L3.28379095,0.290721178 C3.28379095,0.130290071 3.09513173,1.3689723e-05 2.86197571,1.3689723e-05 C2.6288016,8.94134722e-14 2.44016046,0.130288826 2.44016046,0.290222125 Z" id="Fill-3"></path>
                        </g>
                    </g>
                </g>
            </g>
        </g>
    </g>
</svg>