<?xml version="1.0" encoding="utf-8"?>
<!-- Generator: Adobe Illustrator 21.1.0, SVG Export Plug-In . SVG Version: 6.00 Build 0)  -->
<svg version="1.1" id="Layer_1" xmlns="http://www.w3.org/2000/svg" xmlns:xlink="http://www.w3.org/1999/xlink" x="0px" y="0px"
	 viewBox="0 0 20 20" style="enable-background:new 0 0 20 20;" xml:space="preserve">
<style type="text/css">
	.st0{fill:#FFFFFF;}
</style>
<g>
	<circle class="st0" cx="10" cy="10" r="10"/>
	<path class="st0" d="M8,16.3c-0.4,0-0.9-0.2-1.2-0.5l-4.2-4.2c-0.6-0.6-0.6-1.7,0-2.4s1.7-0.6,2.4,0L8,12.3l6.6-6.6
		C15.3,5,16.3,5,17,5.7s0.6,1.7,0,2.4l-7.8,7.8C8.9,16.2,8.5,16.3,8,16.3L8,16.3z"/>
	<path d="M10.9,14.6c-0.7,0.7-1.7,0.7-2.4,0L3.8,9.9c-0.6-0.7-0.6-1.7,0-2.3c0.6-0.6,1.7-0.7,2.3,0l3.5,3.6l7.8-7.8v0
		c-2.2-2.5-5.6-3.7-8.9-3.2C5.2,0.6,2.3,2.8,0.9,5.8c-1.4,3.1-1.2,6.6,0.6,9.5c1.8,2.9,4.9,4.6,8.3,4.7c3.4,0.1,6.5-1.5,8.5-4.3
		c1.9-2.8,2.3-6.3,1-9.4L10.9,14.6z"/>
</g>
</svg>
