<?xml version="1.0" encoding="UTF-8"?>
<svg width="473px" height="82px" viewBox="0 0 473 82" version="1.1" xmlns="http://www.w3.org/2000/svg" xmlns:xlink="http://www.w3.org/1999/xlink">
    <!-- Generator: Sketch 45.1 (43504) - http://www.bohemiancoding.com/sketch -->
    <title>Recombinator!</title>
    <desc>Created with Sketch.</desc>
    <defs>
        <path d="M153.294707,218.046441 C153.504708,219.026446 153.154711,219.516441 152.244707,219.516441 L142.689707,219.516441 C142.269704,219.516441 141.867209,219.376443 141.482207,219.096441 C141.097205,218.81644 140.834707,218.466443 140.694707,218.046441 L133.029707,192.321441 L133.029707,219.516441 L132.924707,218.466441 C132.784706,219.166445 132.32971,219.516441 131.559707,219.516441 L122.214707,219.516441 C121.234702,219.516441 120.744707,219.026446 120.744707,218.046441 L120.744707,147.486441 C120.744707,146.506436 121.234702,146.016441 122.214707,146.016441 L137.964707,146.016441 C139.784716,146.016441 141.499699,146.366438 143.109707,147.066441 C144.719715,147.766445 146.119701,148.711435 147.309707,149.901441 C148.499713,151.091447 149.444703,152.491433 150.144707,154.101441 C150.84471,155.711449 151.194707,157.426432 151.194707,159.246441 L151.194707,176.361441 C151.194707,178.951454 150.529713,181.278931 149.199707,183.343941 C147.8697,185.408952 146.119717,187.001436 143.949707,188.121441 L153.294707,218.046441 Z M133.029707,178.356441 L136.389707,178.356441 C137.08971,178.356441 137.684704,178.111444 138.174707,177.621441 C138.664709,177.131439 138.909707,176.536445 138.909707,175.836441 L138.909707,159.771441 C138.909707,159.071438 138.664709,158.476444 138.174707,157.986441 C137.684704,157.496439 137.08971,157.251441 136.389707,157.251441 L133.029707,157.251441 L133.029707,178.356441 Z M184.479707,207.231441 C185.459711,207.231441 185.949707,207.721436 185.949707,208.701441 L185.949707,218.046441 C185.949707,219.026446 185.459711,219.516441 184.479707,219.516441 L161.694707,219.516441 C160.714702,219.516441 160.224707,219.026446 160.224707,218.046441 L160.224707,147.486441 C160.224707,146.506436 160.714702,146.016441 161.694707,146.016441 L184.479707,146.016441 C185.459711,146.016441 185.949707,146.506436 185.949707,147.486441 L185.949707,156.831441 C185.949707,157.811446 185.459711,158.301441 184.479707,158.301441 L172.509707,158.301441 L172.509707,173.421441 L182.904707,173.421441 C183.884711,173.421441 184.374707,173.911436 184.374707,174.891441 L184.374707,184.236441 C184.374707,185.216446 183.884711,185.706441 182.904707,185.706441 L172.509707,185.706441 L172.509707,207.231441 L184.479707,207.231441 Z M211.044707,145.281441 C212.864716,145.281441 214.579699,145.631438 216.189707,146.331441 C217.799715,147.031445 219.199701,147.976435 220.389707,149.166441 C221.579713,150.356447 222.524703,151.756433 223.224707,153.366441 C223.92471,154.976449 224.274707,156.691432 224.274707,158.511441 L224.274707,166.911441 C224.274707,167.891446 223.819711,168.52144 222.909707,168.801441 L213.354707,170.271441 C212.444702,170.551443 211.989707,170.201446 211.989707,169.221441 L211.989707,159.036441 C211.989707,158.336438 211.744709,157.741444 211.254707,157.251441 C210.764704,156.761439 210.16971,156.516441 209.469707,156.516441 L208.629707,156.516441 C207.929703,156.516441 207.334709,156.761439 206.844707,157.251441 C206.354704,157.741444 206.109707,158.336438 206.109707,159.036441 L206.109707,206.496441 C206.109707,207.196445 206.354704,207.791439 206.844707,208.281441 C207.334709,208.771444 207.929703,209.016441 208.629707,209.016441 L209.469707,209.016441 C210.16971,209.016441 210.764704,208.771444 211.254707,208.281441 C211.744709,207.791439 211.989707,207.196445 211.989707,206.496441 L211.989707,191.796441 C211.989707,190.816436 212.444702,190.46644 213.354707,190.746441 L222.909707,192.006441 C223.819711,192.286443 224.274707,192.916436 224.274707,193.896441 L224.274707,207.021441 C224.274707,208.84145 223.92471,210.556433 223.224707,212.166441 C222.524703,213.776449 221.579713,215.176435 220.389707,216.366441 C219.199701,217.556447 217.799715,218.501438 216.189707,219.201441 C214.579699,219.901445 212.864716,220.251441 211.044707,220.251441 L207.054707,220.251441 C205.234697,220.251441 203.519715,219.901445 201.909707,219.201441 C200.299699,218.501438 198.899713,217.556447 197.709707,216.366441 C196.519701,215.176435 195.57471,213.776449 194.874707,212.166441 C194.174703,210.556433 193.824707,208.84145 193.824707,207.021441 L193.824707,158.511441 C193.824707,156.691432 194.174703,154.976449 194.874707,153.366441 C195.57471,151.756433 196.519701,150.356447 197.709707,149.166441 C198.899713,147.976435 200.299699,147.031445 201.909707,146.331441 C203.519715,145.631438 205.234697,145.281441 207.054707,145.281441 L211.044707,145.281441 Z M261.549707,207.021441 C261.549707,208.84145 261.19971,210.556433 260.499707,212.166441 C259.799703,213.776449 258.854713,215.176435 257.664707,216.366441 C256.474701,217.556447 255.074715,218.501438 253.464707,219.201441 C251.854699,219.901445 250.139716,220.251441 248.319707,220.251441 L244.329707,220.251441 C242.509697,220.251441 240.794715,219.901445 239.184707,219.201441 C237.574699,218.501438 236.174713,217.556447 234.984707,216.366441 C233.794701,215.176435 232.84971,213.776449 232.149707,212.166441 C231.449703,210.556433 231.099707,208.84145 231.099707,207.021441 L231.099707,158.511441 C231.099707,156.691432 231.449703,154.976449 232.149707,153.366441 C232.84971,151.756433 233.794701,150.356447 234.984707,149.166441 C236.174713,147.976435 237.574699,147.031445 239.184707,146.331441 C240.794715,145.631438 242.509697,145.281441 244.329707,145.281441 L248.319707,145.281441 C250.139716,145.281441 251.854699,145.631438 253.464707,146.331441 C255.074715,147.031445 256.474701,147.976435 257.664707,149.166441 C258.854713,150.356447 259.799703,151.756433 260.499707,153.366441 C261.19971,154.976449 261.549707,156.691432 261.549707,158.511441 L261.549707,207.021441 Z M249.264707,159.036441 C249.264707,158.336438 249.019709,157.741444 248.529707,157.251441 C248.039704,156.761439 247.44471,156.516441 246.744707,156.516441 L245.904707,156.516441 C245.204703,156.516441 244.609709,156.761439 244.119707,157.251441 C243.629704,157.741444 243.384707,158.336438 243.384707,159.036441 L243.384707,206.496441 C243.384707,207.196445 243.629704,207.791439 244.119707,208.281441 C244.609709,208.771444 245.204703,209.016441 245.904707,209.016441 L246.744707,209.016441 C247.44471,209.016441 248.039704,208.771444 248.529707,208.281441 C249.019709,207.791439 249.264707,207.196445 249.264707,206.496441 L249.264707,159.036441 Z M309.429707,146.016441 C310.409711,146.016441 310.899707,146.506436 310.899707,147.486441 L310.899707,218.046441 C310.899707,219.026446 310.409711,219.516441 309.429707,219.516441 L299.349707,219.516441 C298.369702,219.516441 297.879707,219.026446 297.879707,218.046441 L297.879707,184.866441 L290.949707,211.956441 C290.809706,212.306443 290.634708,212.481441 290.424707,212.481441 C290.214706,212.481441 290.039707,212.306443 289.899707,211.956441 L282.969707,184.866441 L282.969707,218.046441 C282.969707,219.026446 282.479711,219.516441 281.499707,219.516441 L271.419707,219.516441 C270.439702,219.516441 269.949707,219.026446 269.949707,218.046441 L269.949707,147.486441 C269.949707,146.506436 270.439702,146.016441 271.419707,146.016441 L280.344707,146.016441 C280.764709,146.016441 281.132205,146.17394 281.447207,146.488941 C281.762208,146.803943 281.989706,147.13644 282.129707,147.486441 L290.424707,185.076441 L298.719707,147.486441 C298.859707,147.13644 299.087205,146.803943 299.402207,146.488941 C299.717208,146.17394 300.084704,146.016441 300.504707,146.016441 L309.429707,146.016441 Z M347.859707,182.871441 C348.839711,183.851446 349.574704,185.006435 350.064707,186.336441 C350.554709,187.666448 350.799707,189.136433 350.799707,190.746441 L350.799707,206.286441 C350.799707,208.10645 350.44971,209.821433 349.749707,211.431441 C349.049703,213.041449 348.104713,214.441435 346.914707,215.631441 C345.724701,216.821447 344.324715,217.766438 342.714707,218.466441 C341.104699,219.166445 339.389716,219.516441 337.569707,219.516441 L321.819707,219.516441 C320.839702,219.516441 320.349707,219.026446 320.349707,218.046441 L320.349707,147.486441 C320.349707,146.506436 320.839702,146.016441 321.819707,146.016441 L337.569707,146.016441 C339.389716,146.016441 341.104699,146.366438 342.714707,147.066441 C344.324715,147.766445 345.724701,148.711435 346.914707,149.901441 C348.104713,151.091447 349.049703,152.491433 349.749707,154.101441 C350.44971,155.711449 350.799707,157.426432 350.799707,159.246441 L350.799707,169.746441 C350.799707,172.966457 349.819716,175.66143 347.859707,177.831441 C346.809701,178.951447 345.549714,179.861438 344.079707,180.561441 C345.619714,181.121444 346.879702,181.891436 347.859707,182.871441 Z M338.514707,189.066441 C338.514707,188.366438 338.269709,187.771444 337.779707,187.281441 C337.289704,186.791439 336.69471,186.546441 335.994707,186.546441 L332.634707,186.546441 L332.634707,208.281441 L335.994707,208.281441 C336.69471,208.281441 337.289704,208.036444 337.779707,207.546441 C338.269709,207.056439 338.514707,206.461445 338.514707,205.761441 L338.514707,189.066441 Z M338.514707,159.771441 C338.514707,159.071438 338.269709,158.476444 337.779707,157.986441 C337.289704,157.496439 336.69471,157.251441 335.994707,157.251441 L332.634707,157.251441 L332.634707,175.101441 L335.994707,175.101441 C336.69471,175.101441 337.289704,174.856444 337.779707,174.366441 C338.269709,173.876439 338.514707,173.281445 338.514707,172.581441 L338.514707,159.771441 Z M370.959707,218.046441 C370.959707,219.026446 370.469711,219.516441 369.489707,219.516441 L360.144707,219.516441 C359.164702,219.516441 358.674707,219.026446 358.674707,218.046441 L358.674707,147.486441 C358.674707,146.506436 359.164702,146.016441 360.144707,146.016441 L369.489707,146.016441 C370.469711,146.016441 370.959707,146.506436 370.959707,147.486441 L370.959707,218.046441 Z M412.539707,146.016441 C413.519711,146.016441 414.009707,146.506436 414.009707,147.486441 L414.009707,218.046441 C414.009707,219.026446 413.519711,219.516441 412.539707,219.516441 L405.819707,219.516441 C405.399704,219.516441 404.997209,219.376443 404.612207,219.096441 C404.227205,218.81644 403.964707,218.501443 403.824707,218.151441 L392.694707,183.396441 L392.694707,218.046441 C392.694707,219.026446 392.204711,219.516441 391.224707,219.516441 L381.879707,219.516441 C380.899702,219.516441 380.409707,219.026446 380.409707,218.046441 L380.409707,147.486441 C380.409707,146.506436 380.899702,146.016441 381.879707,146.016441 L388.809707,146.016441 C389.229709,146.016441 389.632205,146.15644 390.017207,146.436441 C390.402209,146.716443 390.664706,147.03144 390.804707,147.381441 L401.724707,181.086441 L401.724707,147.486441 C401.724707,146.506436 402.214702,146.016441 403.194707,146.016441 L412.539707,146.016441 Z M453.909707,218.046441 C454.049707,219.026446 453.629711,219.516441 452.649707,219.516441 L443.094707,219.516441 C442.184702,219.516441 441.659707,219.026446 441.519707,218.046441 L440.679707,206.706441 L434.169707,206.706441 L433.329707,218.046441 C433.189706,219.026446 432.664711,219.516441 431.754707,219.516441 L422.199707,219.516441 C421.219702,219.516441 420.799706,219.026446 420.939707,218.046441 L428.814707,147.486441 C428.954707,146.506436 429.514702,146.016441 430.494707,146.016441 L444.354707,146.016441 C445.334711,146.016441 445.894706,146.506436 446.034707,147.486441 L453.909707,218.046441 Z M439.839707,194.946441 L437.844707,166.491441 L437.004707,166.491441 L435.009707,194.946441 L439.839707,194.946441 Z M487.299707,146.016441 C488.279711,146.016441 488.769707,146.506436 488.769707,147.486441 L488.769707,156.831441 C488.769707,157.811446 488.279711,158.301441 487.299707,158.301441 L479.844707,158.301441 L479.844707,218.046441 C479.844707,219.026446 479.354711,219.516441 478.374707,219.516441 L469.029707,219.516441 C468.679705,219.516441 468.347208,219.376443 468.032207,219.096441 C467.717205,218.81644 467.559707,218.466443 467.559707,218.046441 L467.559707,158.301441 L460.209707,158.301441 C459.229702,158.301441 458.739707,157.811446 458.739707,156.831441 L458.739707,147.486441 C458.739707,146.506436 459.229702,146.016441 460.209707,146.016441 L487.299707,146.016441 Z M525.519707,207.021441 C525.519707,208.84145 525.16971,210.556433 524.469707,212.166441 C523.769703,213.776449 522.824713,215.176435 521.634707,216.366441 C520.444701,217.556447 519.044715,218.501438 517.434707,219.201441 C515.824699,219.901445 514.109716,220.251441 512.289707,220.251441 L508.299707,220.251441 C506.479697,220.251441 504.764715,219.901445 503.154707,219.201441 C501.544699,218.501438 500.144713,217.556447 498.954707,216.366441 C497.764701,215.176435 496.81971,213.776449 496.119707,212.166441 C495.419703,210.556433 495.069707,208.84145 495.069707,207.021441 L495.069707,158.511441 C495.069707,156.691432 495.419703,154.976449 496.119707,153.366441 C496.81971,151.756433 497.764701,150.356447 498.954707,149.166441 C500.144713,147.976435 501.544699,147.031445 503.154707,146.331441 C504.764715,145.631438 506.479697,145.281441 508.299707,145.281441 L512.289707,145.281441 C514.109716,145.281441 515.824699,145.631438 517.434707,146.331441 C519.044715,147.031445 520.444701,147.976435 521.634707,149.166441 C522.824713,150.356447 523.769703,151.756433 524.469707,153.366441 C525.16971,154.976449 525.519707,156.691432 525.519707,158.511441 L525.519707,207.021441 Z M513.234707,159.036441 C513.234707,158.336438 512.989709,157.741444 512.499707,157.251441 C512.009704,156.761439 511.41471,156.516441 510.714707,156.516441 L509.874707,156.516441 C509.174703,156.516441 508.579709,156.761439 508.089707,157.251441 C507.599704,157.741444 507.354707,158.336438 507.354707,159.036441 L507.354707,206.496441 C507.354707,207.196445 507.599704,207.791439 508.089707,208.281441 C508.579709,208.771444 509.174703,209.016441 509.874707,209.016441 L510.714707,209.016441 C511.41471,209.016441 512.009704,208.771444 512.499707,208.281441 C512.989709,207.791439 513.234707,207.196445 513.234707,206.496441 L513.234707,159.036441 Z M566.469707,218.046441 C566.679708,219.026446 566.329711,219.516441 565.419707,219.516441 L555.864707,219.516441 C555.444704,219.516441 555.042209,219.376443 554.657207,219.096441 C554.272205,218.81644 554.009707,218.466443 553.869707,218.046441 L546.204707,192.321441 L546.204707,219.516441 L546.099707,218.466441 C545.959706,219.166445 545.50471,219.516441 544.734707,219.516441 L535.389707,219.516441 C534.409702,219.516441 533.919707,219.026446 533.919707,218.046441 L533.919707,147.486441 C533.919707,146.506436 534.409702,146.016441 535.389707,146.016441 L551.139707,146.016441 C552.959716,146.016441 554.674699,146.366438 556.284707,147.066441 C557.894715,147.766445 559.294701,148.711435 560.484707,149.901441 C561.674713,151.091447 562.619703,152.491433 563.319707,154.101441 C564.01971,155.711449 564.369707,157.426432 564.369707,159.246441 L564.369707,176.361441 C564.369707,178.951454 563.704713,181.278931 562.374707,183.343941 C561.0447,185.408952 559.294717,187.001436 557.124707,188.121441 L566.469707,218.046441 Z M546.204707,178.356441 L549.564707,178.356441 C550.26471,178.356441 550.859704,178.111444 551.349707,177.621441 C551.839709,177.131439 552.084707,176.536445 552.084707,175.836441 L552.084707,159.771441 C552.084707,159.071438 551.839709,158.476444 551.349707,157.986441 C550.859704,157.496439 550.26471,157.251441 549.564707,157.251441 L546.204707,157.251441 L546.204707,178.356441 Z M577.389707,201.666441 C576.479702,201.666441 575.954707,201.176446 575.814707,200.196441 L573.504707,178.146441 C573.434706,177.726439 573.399707,177.236444 573.399707,176.676441 L573.399707,147.486441 C573.399707,146.506436 573.889702,146.016441 574.869707,146.016441 L584.319707,146.016441 C585.299711,146.016441 585.789707,146.506436 585.789707,147.486441 L585.789707,176.676441 C585.789707,177.236444 585.754707,177.726439 585.684707,178.146441 L583.374707,200.196441 C583.234706,201.176446 582.709711,201.666441 581.799707,201.666441 L577.389707,201.666441 Z M572.874707,213.531441 C572.874707,211.711432 573.5397,210.136448 574.869707,208.806441 C576.199713,207.476435 577.774697,206.811441 579.594707,206.811441 C581.414716,206.811441 582.9897,207.476435 584.319707,208.806441 C585.649713,210.136448 586.314707,211.711432 586.314707,213.531441 C586.314707,215.35145 585.649713,216.926435 584.319707,218.256441 C582.9897,219.586448 581.414716,220.251441 579.594707,220.251441 C577.774697,220.251441 576.199713,219.586448 574.869707,218.256441 C573.5397,216.926435 572.874707,215.35145 572.874707,213.531441 Z" id="path-1"></path>
        <filter x="-0.6%" y="-4.0%" width="102.6%" height="116.0%" filterUnits="objectBoundingBox" id="filter-2">
            <feOffset dx="6" dy="6" in="SourceAlpha" result="shadowOffsetOuter1"></feOffset>
            <feColorMatrix values="0 0 0 0 1   0 0 0 0 0   0 0 0 0 0.8  0 0 0 1 0" type="matrix" in="shadowOffsetOuter1"></feColorMatrix>
        </filter>
    </defs>
    <g id="If-Responsive" stroke="none" stroke-width="1" fill="none" fill-rule="evenodd">
        <g id="1366x768_LP-Copy" transform="translate(-483.000000, -245.000000)">
            <g id="Group-2" transform="translate(363.000000, 100.000000)">
                <g id="Recombinator!">
                    <use fill="black" fill-opacity="1" filter="url(#filter-2)" xlink:href="#path-1"></use>
                    <use fill="#FFFFFF" fill-rule="evenodd" xlink:href="#path-1"></use>
                </g>
            </g>
        </g>
    </g>
</svg>