<?xml version="1.0" encoding="UTF-8"?>
<svg width="48px" height="52px" viewBox="0 0 48 52" version="1.1" xmlns="http://www.w3.org/2000/svg" xmlns:xlink="http://www.w3.org/1999/xlink">
    <!-- Generator: Sketch 44.1 (41455) - http://www.bohemiancoding.com/sketch -->
    <title>icon/soundcontrol</title>
    <desc>Created with Sketch.</desc>
    <defs>
        <linearGradient x1="50%" y1="0%" x2="50%" y2="99.0214445%" id="linearGradient-1">
            <stop stop-color="#000000" stop-opacity="0" offset="0%"></stop>
            <stop stop-color="#000000" stop-opacity="0.02" offset="80%"></stop>
            <stop stop-color="#000000" stop-opacity="0.04" offset="100%"></stop>
        </linearGradient>
        <linearGradient x1="50%" y1="0%" x2="50%" y2="100%" id="linearGradient-2">
            <stop stop-color="#FFFFFF" stop-opacity="0.12" offset="0%"></stop>
            <stop stop-color="#FFFFFF" stop-opacity="0.06" offset="20%"></stop>
            <stop stop-color="#FFFFFF" stop-opacity="0" offset="100%"></stop>
        </linearGradient>
        <circle id="path-3" cx="20" cy="20" r="20"></circle>
        <filter x="-30.0%" y="-20.0%" width="160.0%" height="160.0%" filterUnits="objectBoundingBox" id="filter-4">
            <feOffset dx="0" dy="4" in="SourceAlpha" result="shadowOffsetOuter1"></feOffset>
            <feGaussianBlur stdDeviation="2" in="shadowOffsetOuter1" result="shadowBlurOuter1"></feGaussianBlur>
            <feComposite in="shadowBlurOuter1" in2="SourceAlpha" operator="out" result="shadowBlurOuter1"></feComposite>
            <feColorMatrix values="0 0 0 0 0   0 0 0 0 0   0 0 0 0 0  0 0 0 0.237601902 0" type="matrix" in="shadowBlurOuter1" result="shadowMatrixOuter1"></feColorMatrix>
            <feOffset dx="0" dy="0" in="SourceAlpha" result="shadowOffsetOuter2"></feOffset>
            <feGaussianBlur stdDeviation="2" in="shadowOffsetOuter2" result="shadowBlurOuter2"></feGaussianBlur>
            <feComposite in="shadowBlurOuter2" in2="SourceAlpha" operator="out" result="shadowBlurOuter2"></feComposite>
            <feColorMatrix values="0 0 0 0 0   0 0 0 0 0   0 0 0 0 0  0 0 0 0.12 0" type="matrix" in="shadowBlurOuter2" result="shadowMatrixOuter2"></feColorMatrix>
            <feMerge>
                <feMergeNode in="shadowMatrixOuter1"></feMergeNode>
                <feMergeNode in="shadowMatrixOuter2"></feMergeNode>
            </feMerge>
        </filter>
    </defs>
    <g id="If-Responsive" stroke="none" stroke-width="1" fill="none" fill-rule="evenodd">
        <g id="1366x768_end" transform="translate(-937.000000, -137.000000)">
            <g id="icon/soundcontrol/off" transform="translate(938.000000, 138.000000)">
                <rect id="47x49" x="0" y="0" width="47" height="49"></rect>
                <g id="Group-2" stroke-width="1" fill-rule="evenodd" transform="translate(3.000000, 3.000000)">
                    <g id="knob">
                        <use fill="black" fill-opacity="1" filter="url(#filter-4)" xlink:href="#path-3"></use>
                        <use fill="#D4D4D4" fill-rule="evenodd" xlink:href="#path-3"></use>
                        <circle stroke="url(#linearGradient-1)" stroke-width="1" cx="20" cy="20" r="19.5"></circle>
                        <circle stroke="url(#linearGradient-2)" stroke-width="1" cx="20" cy="20" r="19.5"></circle>
                    </g>
                    <g id="Page-1" transform="translate(8.000000, 9.000000)" fill="#FFFFFF">
                        <path d="M13.8953205,6.07948175 C13.6476667,6.33008731 13.5963218,6.6836173 13.7792366,6.86871219 L22.0830637,15.2715103 C22.2665478,15.4571813 22.6161129,15.4038707 22.8629983,15.1540428 C23.1106522,14.9034372 23.161997,14.5499072 22.9790822,14.3648123 L14.6760044,5.96125609 C14.4930754,5.7761468 14.1429551,5.82889564 13.8953205,6.07948175 Z" id="Fill-2" stroke="#FFFFFF" stroke-width="0.5"></path>
                        <path d="M22.8637476,6.07948175 C23.1114014,6.33008731 23.1627463,6.6836173 22.9798315,6.86871219 L14.6760044,15.2715103 C14.4925203,15.4571813 14.1429551,15.4038707 13.8960698,15.1540428 C13.6484159,14.9034372 13.5970711,14.5499072 13.7799858,14.3648123 L22.0830637,5.96125609 C22.2659927,5.7761468 22.6161129,5.82889564 22.8637476,6.07948175 Z" id="Fill-2-Copy" stroke="#FFFFFF" stroke-width="0.5"></path>
                        <path d="M9.08387532,0.0441906059 C8.87496982,-0.047380626 8.63543121,0.00636759498 8.47758325,0.177564877 L3.16408973,5.98325946 L0.554286151,5.98325946 C0.247883802,5.98325946 0,6.2500131 0,6.5774609 L0,15.4596513 C0,15.7881183 0.24883455,16.0538527 0.554286151,16.0538527 L3.1976036,16.0538527 L8.47782094,21.8218364 C8.58366535,21.9372929 8.72758247,22 8.8742829,22 C8.94484743,22 9.01633893,21.9860653 9.08411539,21.9552107 C9.29302089,21.8636394 9.42857143,21.6466693 9.42857143,21.4047844 L9.42857143,0.595503542 C9.42857143,0.352645363 9.29208678,0.13665365 9.08411539,0.0440835885 L9.08387532,0.0441906059 Z" id="Fill-4"></path>
                    </g>
                </g>
            </g>
        </g>
    </g>
</svg>