<?xml version="1.0" encoding="UTF-8"?>
<svg width="391px" height="69px" viewBox="0 0 391 69" version="1.1" xmlns="http://www.w3.org/2000/svg" xmlns:xlink="http://www.w3.org/1999/xlink">
    <!-- Generator: Sketch 45 (43475) - http://www.bohemiancoding.com/sketch -->
    <title>Group 5</title>
    <desc>Created with Sketch.</desc>
    <defs></defs>
    <g id="Page-1" stroke="none" stroke-width="1" fill="none" fill-rule="evenodd">
        <g id="Artboard-Copy" transform="translate(-53.000000, -117.000000)">
            <g id="Group-5" transform="translate(53.000000, 117.000000)">
                <g id="Group">
                    <circle id="Oval-Copy" fill="#3AD3AA" cx="36" cy="36" r="33"></circle>
                    <rect id="Rectangle-6-Copy-2" fill="#3AD3AA" x="33" y="12" width="357.524609" height="49"></rect>
                    <rect id="Rectangle-6" fill="#FFFFFF" x="29" y="8" width="357.524609" height="49"></rect>
                    <circle id="Oval" fill="#FFFFFF" cx="33" cy="33" r="33"></circle>
                    <path d="M75.72,20.255 C76.3266697,20.255 76.8983306,20.3716655 77.435,20.605 C77.9716693,20.8383345 78.4383313,21.1533313 78.835,21.55 C79.2316686,21.9466686 79.5466655,22.4133306 79.78,22.95 C80.0133345,23.4866693 80.13,24.0583303 80.13,24.665 L80.13,25.995 C80.13,26.3216683 79.9783348,26.5316662 79.675,26.625 L76.49,27.465 C76.1866651,27.5583338 76.035,27.4416683 76.035,27.115 L76.035,24.84 C76.035,24.6066655 75.9533341,24.4083341 75.79,24.245 C75.6266658,24.0816658 75.4283345,24 75.195,24 L74.915,24 C74.6816655,24 74.4833341,24.0816658 74.32,24.245 C74.1566658,24.4083341 74.075,24.6066655 74.075,24.84 L74.075,28.025 C74.0983334,28.2816679 74.1449996,28.5033324 74.215,28.69 C74.2850003,28.8766676 74.4133324,29.0633324 74.6,29.25 L79.185,32.68 C79.5583352,33.0066683 79.7974995,33.339165 79.9025,33.6775 C80.0075005,34.015835 80.0833331,34.3949979 80.13,34.815 L80.13,40.835 C80.13,41.4416697 80.0133345,42.0133307 79.78,42.55 C79.5466655,43.0866694 79.2316686,43.5533314 78.835,43.95 C78.4383313,44.3466686 77.9716693,44.6616655 77.435,44.895 C76.8983306,45.1283345 76.3266697,45.245 75.72,45.245 L74.39,45.245 C73.7833303,45.245 73.2116693,45.1283345 72.675,44.895 C72.1383306,44.6616655 71.6716686,44.3466686 71.275,43.95 C70.8783313,43.5533314 70.5633345,43.0866694 70.33,42.55 C70.0966655,42.0133307 69.98,41.4416697 69.98,40.835 L69.98,37.475 C69.98,37.1483317 70.1316651,36.9383338 70.435,36.845 L73.62,36.005 C73.9233348,35.9116662 74.075,36.0283317 74.075,36.355 L74.075,40.66 C74.075,40.8933345 74.1566658,41.0916658 74.32,41.255 C74.4833341,41.4183341 74.6816655,41.5 74.915,41.5 L75.195,41.5 C75.4283345,41.5 75.6266658,41.4183341 75.79,41.255 C75.9533341,41.0916658 76.035,40.8933345 76.035,40.66 L76.035,36.04 C76.0116665,35.7366652 75.9650003,35.4683345 75.895,35.235 C75.8249996,35.0016655 75.685001,34.7916676 75.475,34.605 L70.96,31.14 C70.6099982,30.8133317 70.3591674,30.4866683 70.2075,30.16 C70.0558326,29.8333317 69.98,29.4016693 69.98,28.865 L69.98,24.665 C69.98,24.0583303 70.0966655,23.4866693 70.33,22.95 C70.5633345,22.4133306 70.8783313,21.9466686 71.275,21.55 C71.6716686,21.1533313 72.1383306,20.8383345 72.675,20.605 C73.2116693,20.3716655 73.7833303,20.255 74.39,20.255 L75.72,20.255 Z M92.555,40.835 C92.555,41.4416697 92.4383345,42.0133307 92.205,42.55 C91.9716655,43.0866694 91.6566686,43.5533314 91.26,43.95 C90.8633313,44.3466686 90.3966693,44.6616655 89.86,44.895 C89.3233306,45.1283345 88.7516697,45.245 88.145,45.245 L86.815,45.245 C86.2083303,45.245 85.6366693,45.1283345 85.1,44.895 C84.5633306,44.6616655 84.0966686,44.3466686 83.7,43.95 C83.3033313,43.5533314 82.9883345,43.0866694 82.755,42.55 C82.5216655,42.0133307 82.405,41.4416697 82.405,40.835 L82.405,24.665 C82.405,24.0583303 82.5216655,23.4866693 82.755,22.95 C82.9883345,22.4133306 83.3033313,21.9466686 83.7,21.55 C84.0966686,21.1533313 84.5633306,20.8383345 85.1,20.605 C85.6366693,20.3716655 86.2083303,20.255 86.815,20.255 L88.145,20.255 C88.7516697,20.255 89.3233306,20.3716655 89.86,20.605 C90.3966693,20.8383345 90.8633313,21.1533313 91.26,21.55 C91.6566686,21.9466686 91.9716655,22.4133306 92.205,22.95 C92.4383345,23.4866693 92.555,24.0583303 92.555,24.665 L92.555,40.835 Z M88.46,24.84 C88.46,24.6066655 88.3783341,24.4083341 88.215,24.245 C88.0516658,24.0816658 87.8533345,24 87.62,24 L87.34,24 C87.1066655,24 86.9083341,24.0816658 86.745,24.245 C86.5816658,24.4083341 86.5,24.6066655 86.5,24.84 L86.5,40.66 C86.5,40.8933345 86.5816658,41.0916658 86.745,41.255 C86.9083341,41.4183341 87.1066655,41.5 87.34,41.5 L87.62,41.5 C87.8533345,41.5 88.0516658,41.4183341 88.215,41.255 C88.3783341,41.0916658 88.46,40.8933345 88.46,40.66 L88.46,24.84 Z M104.665,20.5 C104.991668,20.5 105.155,20.6633317 105.155,20.99 L105.155,40.835 C105.155,41.4416697 105.038334,42.0133307 104.805,42.55 C104.571665,43.0866694 104.256669,43.5533314 103.86,43.95 C103.463331,44.3466686 102.996669,44.6616655 102.46,44.895 C101.923331,45.1283345 101.35167,45.245 100.745,45.245 L99.415,45.245 C98.8083303,45.245 98.2366693,45.1283345 97.7,44.895 C97.1633306,44.6616655 96.6966686,44.3466686 96.3,43.95 C95.9033313,43.5533314 95.5883345,43.0866694 95.355,42.55 C95.1216655,42.0133307 95.005,41.4416697 95.005,40.835 L95.005,20.99 C95.005,20.6633317 95.1683317,20.5 95.495,20.5 L98.61,20.5 C98.9366683,20.5 99.1,20.6633317 99.1,20.99 L99.1,40.66 C99.1,40.8933345 99.1816658,41.0916658 99.345,41.255 C99.5083341,41.4183341 99.7066655,41.5 99.94,41.5 L100.22,41.5 C100.453334,41.5 100.651666,41.4183341 100.815,41.255 C100.978334,41.0916658 101.06,40.8933345 101.06,40.66 L101.06,20.99 C101.06,20.6633317 101.223332,20.5 101.55,20.5 L104.665,20.5 Z M118.665,20.5 C118.991668,20.5 119.155,20.6633317 119.155,20.99 L119.155,44.51 C119.155,44.8366683 118.991668,45 118.665,45 L116.425,45 C116.284999,45 116.150834,44.9533338 116.0225,44.86 C115.894166,44.7666662 115.806667,44.6616672 115.76,44.545 L112.05,32.96 L112.05,44.51 C112.05,44.8366683 111.886668,45 111.56,45 L108.445,45 C108.118332,45 107.955,44.8366683 107.955,44.51 L107.955,20.99 C107.955,20.6633317 108.118332,20.5 108.445,20.5 L110.755,20.5 C110.895001,20.5 111.029166,20.5466662 111.1575,20.64 C111.285834,20.7333338 111.373333,20.8383327 111.42,20.955 L115.06,32.19 L115.06,20.99 C115.06,20.6633317 115.223332,20.5 115.55,20.5 L118.665,20.5 Z M128.045,20.5 C128.65167,20.5 129.223331,20.6166655 129.76,20.85 C130.296669,21.0833345 130.763331,21.3983314 131.16,21.795 C131.556669,22.1916687 131.871665,22.6583306 132.105,23.195 C132.338334,23.7316693 132.455,24.3033303 132.455,24.91 L132.455,40.59 C132.455,41.1966697 132.338334,41.7683306 132.105,42.305 C131.871665,42.8416694 131.556669,43.3083314 131.16,43.705 C130.763331,44.1016686 130.296669,44.4166655 129.76,44.65 C129.223331,44.8833345 128.65167,45 128.045,45 L122.795,45 C122.468332,45 122.305,44.8366683 122.305,44.51 L122.305,20.99 C122.305,20.6633317 122.468332,20.5 122.795,20.5 L128.045,20.5 Z M128.36,25.085 C128.36,24.8516655 128.278334,24.6533341 128.115,24.49 C127.951666,24.3266658 127.753334,24.245 127.52,24.245 L126.4,24.245 L126.4,41.255 L127.52,41.255 C127.753334,41.255 127.951666,41.1733342 128.115,41.01 C128.278334,40.8466659 128.36,40.6483345 128.36,40.415 L128.36,25.085 Z M149.675,40.835 C149.675,41.4416697 149.558334,42.0133307 149.325,42.55 C149.091665,43.0866694 148.776669,43.5533314 148.38,43.95 C147.983331,44.3466686 147.516669,44.6616655 146.98,44.895 C146.443331,45.1283345 145.87167,45.245 145.265,45.245 L143.935,45.245 C143.32833,45.245 142.756669,45.1283345 142.22,44.895 C141.683331,44.6616655 141.216669,44.3466686 140.82,43.95 C140.423331,43.5533314 140.108334,43.0866694 139.875,42.55 C139.641665,42.0133307 139.525,41.4416697 139.525,40.835 L139.525,24.665 C139.525,24.0583303 139.641665,23.4866693 139.875,22.95 C140.108334,22.4133306 140.423331,21.9466686 140.82,21.55 C141.216669,21.1533313 141.683331,20.8383345 142.22,20.605 C142.756669,20.3716655 143.32833,20.255 143.935,20.255 L145.265,20.255 C145.87167,20.255 146.443331,20.3716655 146.98,20.605 C147.516669,20.8383345 147.983331,21.1533313 148.38,21.55 C148.776669,21.9466686 149.091665,22.4133306 149.325,22.95 C149.558334,23.4866693 149.675,24.0583303 149.675,24.665 L149.675,40.835 Z M145.58,24.84 C145.58,24.6066655 145.498334,24.4083341 145.335,24.245 C145.171666,24.0816658 144.973334,24 144.74,24 L144.46,24 C144.226665,24 144.028334,24.0816658 143.865,24.245 C143.701666,24.4083341 143.62,24.6066655 143.62,24.84 L143.62,40.66 C143.62,40.8933345 143.701666,41.0916658 143.865,41.255 C144.028334,41.4183341 144.226665,41.5 144.46,41.5 L144.74,41.5 C144.973334,41.5 145.171666,41.4183341 145.335,41.255 C145.498334,41.0916658 145.58,40.8933345 145.58,40.66 L145.58,24.84 Z M163.185,20.5 C163.511668,20.5 163.675,20.6633317 163.675,20.99 L163.675,44.51 C163.675,44.8366683 163.511668,45 163.185,45 L160.945,45 C160.804999,45 160.670834,44.9533338 160.5425,44.86 C160.414166,44.7666662 160.326667,44.6616672 160.28,44.545 L156.57,32.96 L156.57,44.51 C156.57,44.8366683 156.406668,45 156.08,45 L152.965,45 C152.638332,45 152.475,44.8366683 152.475,44.51 L152.475,20.99 C152.475,20.6633317 152.638332,20.5 152.965,20.5 L155.275,20.5 C155.415001,20.5 155.549166,20.5466662 155.6775,20.64 C155.805834,20.7333338 155.893333,20.8383327 155.94,20.955 L159.58,32.19 L159.58,20.99 C159.58,20.6633317 159.743332,20.5 160.07,20.5 L163.185,20.5 Z M180.265,20.5 C180.591668,20.5 180.755,20.6633317 180.755,20.99 L180.755,24.105 C180.755,24.4316683 180.591668,24.595 180.265,24.595 L177.78,24.595 L177.78,44.51 C177.78,44.8366683 177.616668,45 177.29,45 L174.175,45 C174.058333,45 173.947501,44.9533338 173.8425,44.86 C173.737499,44.7666662 173.685,44.6500007 173.685,44.51 L173.685,24.595 L171.235,24.595 C170.908332,24.595 170.745,24.4316683 170.745,24.105 L170.745,20.99 C170.745,20.6633317 170.908332,20.5 171.235,20.5 L180.265,20.5 Z M193.005,40.835 C193.005,41.4416697 192.888334,42.0133307 192.655,42.55 C192.421665,43.0866694 192.106669,43.5533314 191.71,43.95 C191.313331,44.3466686 190.846669,44.6616655 190.31,44.895 C189.773331,45.1283345 189.20167,45.245 188.595,45.245 L187.265,45.245 C186.65833,45.245 186.086669,45.1283345 185.55,44.895 C185.013331,44.6616655 184.546669,44.3466686 184.15,43.95 C183.753331,43.5533314 183.438334,43.0866694 183.205,42.55 C182.971665,42.0133307 182.855,41.4416697 182.855,40.835 L182.855,24.665 C182.855,24.0583303 182.971665,23.4866693 183.205,22.95 C183.438334,22.4133306 183.753331,21.9466686 184.15,21.55 C184.546669,21.1533313 185.013331,20.8383345 185.55,20.605 C186.086669,20.3716655 186.65833,20.255 187.265,20.255 L188.595,20.255 C189.20167,20.255 189.773331,20.3716655 190.31,20.605 C190.846669,20.8383345 191.313331,21.1533313 191.71,21.55 C192.106669,21.9466686 192.421665,22.4133306 192.655,22.95 C192.888334,23.4866693 193.005,24.0583303 193.005,24.665 L193.005,40.835 Z M188.91,24.84 C188.91,24.6066655 188.828334,24.4083341 188.665,24.245 C188.501666,24.0816658 188.303334,24 188.07,24 L187.79,24 C187.556665,24 187.358334,24.0816658 187.195,24.245 C187.031666,24.4083341 186.95,24.6066655 186.95,24.84 L186.95,40.66 C186.95,40.8933345 187.031666,41.0916658 187.195,41.255 C187.358334,41.4183341 187.556665,41.5 187.79,41.5 L188.07,41.5 C188.303334,41.5 188.501666,41.4183341 188.665,41.255 C188.828334,41.0916658 188.91,40.8933345 188.91,40.66 L188.91,24.84 Z M210.435,20.5 C210.761668,20.5 210.925,20.6633317 210.925,20.99 L210.925,44.51 C210.925,44.8366683 210.761668,45 210.435,45 L207.32,45 C206.993332,45 206.83,44.8366683 206.83,44.51 L206.83,34.5 L204.52,34.5 L204.52,44.51 C204.52,44.8366683 204.356668,45 204.03,45 L200.915,45 C200.588332,45 200.425,44.8366683 200.425,44.51 L200.425,20.99 C200.425,20.6633317 200.588332,20.5 200.915,20.5 L204.03,20.5 C204.356668,20.5 204.52,20.6633317 204.52,20.99 L204.52,30.405 L206.83,30.405 L206.83,20.99 C206.83,20.6633317 206.993332,20.5 207.32,20.5 L210.435,20.5 Z M222.16,40.905 C222.486668,40.905 222.65,41.0683317 222.65,41.395 L222.65,44.51 C222.65,44.8366683 222.486668,45 222.16,45 L214.565,45 C214.238332,45 214.075,44.8366683 214.075,44.51 L214.075,20.99 C214.075,20.6633317 214.238332,20.5 214.565,20.5 L222.16,20.5 C222.486668,20.5 222.65,20.6633317 222.65,20.99 L222.65,24.105 C222.65,24.4316683 222.486668,24.595 222.16,24.595 L218.17,24.595 L218.17,29.635 L221.635,29.635 C221.961668,29.635 222.125,29.7983317 222.125,30.125 L222.125,33.24 C222.125,33.5666683 221.961668,33.73 221.635,33.73 L218.17,33.73 L218.17,40.905 L222.16,40.905 Z M235.775,44.51 C235.821667,44.8366683 235.681668,45 235.355,45 L232.17,45 C231.866665,45 231.691667,44.8366683 231.645,44.51 L231.365,40.73 L229.195,40.73 L228.915,44.51 C228.868333,44.8366683 228.693335,45 228.39,45 L225.205,45 C224.878332,45 224.738333,44.8366683 224.785,44.51 L227.41,20.99 C227.456667,20.6633317 227.643332,20.5 227.97,20.5 L232.59,20.5 C232.916668,20.5 233.103333,20.6633317 233.15,20.99 L235.775,44.51 Z M231.085,36.81 L230.42,27.325 L230.14,27.325 L229.475,36.81 L231.085,36.81 Z M248.935,44.51 C249.005,44.8366683 248.888335,45 248.585,45 L245.4,45 C245.259999,45 245.125834,44.9533338 244.9975,44.86 C244.869166,44.7666662 244.781667,44.6500007 244.735,44.51 L242.18,35.935 L242.18,45 L242.145,44.65 C242.098333,44.8833345 241.946668,45 241.69,45 L238.575,45 C238.248332,45 238.085,44.8366683 238.085,44.51 L238.085,20.99 C238.085,20.6633317 238.248332,20.5 238.575,20.5 L243.825,20.5 C244.43167,20.5 245.003331,20.6166655 245.54,20.85 C246.076669,21.0833345 246.543331,21.3983314 246.94,21.795 C247.336669,22.1916687 247.651665,22.6583306 247.885,23.195 C248.118335,23.7316693 248.235,24.3033303 248.235,24.91 L248.235,30.615 C248.235,31.4783376 248.013336,32.2541632 247.57,32.9425 C247.126664,33.6308368 246.543337,34.1616648 245.82,34.535 L248.935,44.51 Z M242.18,31.28 L243.3,31.28 C243.533335,31.28 243.731666,31.1983342 243.895,31.035 C244.058334,30.8716658 244.14,30.6733345 244.14,30.44 L244.14,25.085 C244.14,24.8516655 244.058334,24.6533341 243.895,24.49 C243.731666,24.3266658 243.533335,24.245 243.3,24.245 L242.18,24.245 L242.18,31.28 Z M264.685,20.5 C265.011668,20.5 265.175,20.6633317 265.175,20.99 L265.175,24.105 C265.175,24.4316683 265.011668,24.595 264.685,24.595 L262.2,24.595 L262.2,44.51 C262.2,44.8366683 262.036668,45 261.71,45 L258.595,45 C258.478333,45 258.367501,44.9533338 258.2625,44.86 C258.157499,44.7666662 258.105,44.6500007 258.105,44.51 L258.105,24.595 L255.655,24.595 C255.328332,24.595 255.165,24.4316683 255.165,24.105 L255.165,20.99 C255.165,20.6633317 255.328332,20.5 255.655,20.5 L264.685,20.5 Z M277.635,20.5 C277.961668,20.5 278.125,20.6633317 278.125,20.99 L278.125,44.51 C278.125,44.8366683 277.961668,45 277.635,45 L274.52,45 C274.193332,45 274.03,44.8366683 274.03,44.51 L274.03,34.5 L271.72,34.5 L271.72,44.51 C271.72,44.8366683 271.556668,45 271.23,45 L268.115,45 C267.788332,45 267.625,44.8366683 267.625,44.51 L267.625,20.99 C267.625,20.6633317 267.788332,20.5 268.115,20.5 L271.23,20.5 C271.556668,20.5 271.72,20.6633317 271.72,20.99 L271.72,30.405 L274.03,30.405 L274.03,20.99 C274.03,20.6633317 274.193332,20.5 274.52,20.5 L277.635,20.5 Z M289.36,40.905 C289.686668,40.905 289.85,41.0683317 289.85,41.395 L289.85,44.51 C289.85,44.8366683 289.686668,45 289.36,45 L281.765,45 C281.438332,45 281.275,44.8366683 281.275,44.51 L281.275,20.99 C281.275,20.6633317 281.438332,20.5 281.765,20.5 L289.36,20.5 C289.686668,20.5 289.85,20.6633317 289.85,20.99 L289.85,24.105 C289.85,24.4316683 289.686668,24.595 289.36,24.595 L285.37,24.595 L285.37,29.635 L288.835,29.635 C289.161668,29.635 289.325,29.7983317 289.325,30.125 L289.325,33.24 C289.325,33.5666683 289.161668,33.73 288.835,33.73 L285.37,33.73 L285.37,40.905 L289.36,40.905 Z M305.53,20.5 C305.856668,20.5 306.02,20.6633317 306.02,20.99 L306.02,24.105 C306.02,24.4316683 305.856668,24.595 305.53,24.595 L301.54,24.595 L301.54,29.635 L305.005,29.635 C305.331668,29.635 305.495,29.7983317 305.495,30.125 L305.495,33.24 C305.495,33.5666683 305.331668,33.73 305.005,33.73 L301.54,33.73 L301.54,44.51 C301.54,44.8366683 301.376668,45 301.05,45 L297.935,45 C297.608332,45 297.445,44.8366683 297.445,44.51 L297.445,20.99 C297.445,20.6633317 297.608332,20.5 297.935,20.5 L305.53,20.5 Z M317.255,40.905 C317.581668,40.905 317.745,41.0683317 317.745,41.395 L317.745,44.51 C317.745,44.8366683 317.581668,45 317.255,45 L309.31,45 C308.983332,45 308.82,44.8366683 308.82,44.51 L308.82,20.99 C308.82,20.6633317 308.983332,20.5 309.31,20.5 L312.425,20.5 C312.751668,20.5 312.915,20.6633317 312.915,20.99 L312.915,40.905 L317.255,40.905 Z M330.345,44.51 C330.391667,44.8366683 330.251668,45 329.925,45 L326.74,45 C326.436665,45 326.261667,44.8366683 326.215,44.51 L325.935,40.73 L323.765,40.73 L323.485,44.51 C323.438333,44.8366683 323.263335,45 322.96,45 L319.775,45 C319.448332,45 319.308333,44.8366683 319.355,44.51 L321.98,20.99 C322.026667,20.6633317 322.213332,20.5 322.54,20.5 L327.16,20.5 C327.486668,20.5 327.673333,20.6633317 327.72,20.99 L330.345,44.51 Z M325.655,36.81 L324.99,27.325 L324.71,27.325 L324.045,36.81 L325.655,36.81 Z M343.505,20.5 C343.831668,20.5 343.971667,20.6633317 343.925,20.99 L339.795,44.51 C339.748333,44.8366683 339.561668,45 339.235,45 L336.155,45 C335.828332,45 335.641667,44.8366683 335.595,44.51 L331.465,20.99 C331.418333,20.6633317 331.558332,20.5 331.885,20.5 L335.665,20.5 C335.968335,20.5 336.143333,20.6633317 336.19,20.99 L337.625,35.83 L337.765,35.83 L339.2,20.99 C339.246667,20.6633317 339.421665,20.5 339.725,20.5 L343.505,20.5 Z M355.685,40.835 C355.685,41.4416697 355.568334,42.0133307 355.335,42.55 C355.101665,43.0866694 354.786669,43.5533314 354.39,43.95 C353.993331,44.3466686 353.526669,44.6616655 352.99,44.895 C352.453331,45.1283345 351.88167,45.245 351.275,45.245 L349.945,45.245 C349.33833,45.245 348.766669,45.1283345 348.23,44.895 C347.693331,44.6616655 347.226669,44.3466686 346.83,43.95 C346.433331,43.5533314 346.118335,43.0866694 345.885,42.55 C345.651666,42.0133307 345.535,41.4416697 345.535,40.835 L345.535,24.665 C345.535,24.0583303 345.651666,23.4866693 345.885,22.95 C346.118335,22.4133306 346.433331,21.9466686 346.83,21.55 C347.226669,21.1533313 347.693331,20.8383345 348.23,20.605 C348.766669,20.3716655 349.33833,20.255 349.945,20.255 L351.275,20.255 C351.88167,20.255 352.453331,20.3716655 352.99,20.605 C353.526669,20.8383345 353.993331,21.1533313 354.39,21.55 C354.786669,21.9466686 355.101665,22.4133306 355.335,22.95 C355.568334,23.4866693 355.685,24.0583303 355.685,24.665 L355.685,40.835 Z M351.59,24.84 C351.59,24.6066655 351.508334,24.4083341 351.345,24.245 C351.181666,24.0816658 350.983335,24 350.75,24 L350.47,24 C350.236666,24 350.038334,24.0816658 349.875,24.245 C349.711666,24.4083341 349.63,24.6066655 349.63,24.84 L349.63,40.66 C349.63,40.8933345 349.711666,41.0916658 349.875,41.255 C350.038334,41.4183341 350.236666,41.5 350.47,41.5 L350.75,41.5 C350.983335,41.5 351.181666,41.4183341 351.345,41.255 C351.508334,41.0916658 351.59,40.8933345 351.59,40.66 L351.59,24.84 Z M369.335,44.51 C369.405,44.8366683 369.288335,45 368.985,45 L365.8,45 C365.659999,45 365.525834,44.9533338 365.3975,44.86 C365.269166,44.7666662 365.181667,44.6500007 365.135,44.51 L362.58,35.935 L362.58,45 L362.545,44.65 C362.498333,44.8833345 362.346668,45 362.09,45 L358.975,45 C358.648332,45 358.485,44.8366683 358.485,44.51 L358.485,20.99 C358.485,20.6633317 358.648332,20.5 358.975,20.5 L364.225,20.5 C364.83167,20.5 365.403331,20.6166655 365.94,20.85 C366.476669,21.0833345 366.943331,21.3983314 367.34,21.795 C367.736669,22.1916687 368.051666,22.6583306 368.285,23.195 C368.518335,23.7316693 368.635,24.3033303 368.635,24.91 L368.635,30.615 C368.635,31.4783376 368.413336,32.2541632 367.97,32.9425 C367.526664,33.6308368 366.943337,34.1616648 366.22,34.535 L369.335,44.51 Z M362.58,31.28 L363.7,31.28 C363.933334,31.28 364.131666,31.1983342 364.295,31.035 C364.458334,30.8716658 364.54,30.6733345 364.54,30.44 L364.54,25.085 C364.54,24.8516655 364.458334,24.6533341 364.295,24.49 C364.131666,24.3266658 363.933334,24.245 363.7,24.245 L362.58,24.245 L362.58,31.28 Z" id="SOUND-ON-TO-HEAR-THE" fill="#3AD3AA"></path>
                </g>
                <g id="Group-4" transform="translate(11.000000, 12.000000)" fill="#3AD3AA">
                    <path d="M38,21.5 C38,12.425 30.575,5 21.5,5 C12.425,5 5,12.425 5,21.5 C5,24.14 5.66,26.615 6.815,28.925 C6.65,29.255 6.65,29.42 6.65,29.75 C6.65,31.565 8.135,33.05 9.95,33.05 C9.95,34.04 10.61,34.7 11.6,34.7 L11.6,36.35 C11.6,37.34 12.26,38 13.25,38 C14.24,38 14.9,37.34 14.9,36.35 L14.9,23.15 C14.9,22.16 14.24,21.5 13.25,21.5 C12.26,21.5 11.6,22.16 11.6,23.15 L11.6,24.8 C10.61,24.8 9.95,25.46 9.95,26.45 L9.29,26.45 C8.63,24.8 8.3,23.15 8.3,21.5 C8.3,14.24 14.24,8.3 21.5,8.3 C28.76,8.3 34.7,14.24 34.7,21.5 C34.7,23.315 34.37,24.965 33.71,26.45 L33.05,26.45 C33.05,25.46 32.39,24.8 31.4,24.8 L31.4,23.15 C31.4,22.16 30.74,21.5 29.75,21.5 C28.76,21.5 28.1,22.16 28.1,23.15 L28.1,36.35 C28.1,37.34 28.76,38 29.75,38 C30.74,38 31.4,37.34 31.4,36.35 L31.4,34.7 C32.39,34.7 33.05,34.04 33.05,33.05 C34.865,33.05 36.35,31.565 36.35,29.75 C36.35,29.42 36.35,29.255 36.185,28.925 C37.34,26.615 38,24.14 38,21.5 Z" id="Page-1" transform="translate(21.500000, 21.500000) rotate(-20.000000) translate(-21.500000, -21.500000) "></path>
                    <g id="Group-3" transform="translate(28.060307, 28.842020) scale(-1, 1) rotate(20.000000) translate(-28.060307, -28.842020) translate(26.060307, 23.342020)">
                        <path d="M0.641543052,1.5350269 C0.408563755,1.5350269 0.220080232,1.66256005 0.220080232,1.81911067 L0.220080232,8.92607765 C0.220080232,9.08311555 0.409286676,9.21016142 0.641543052,9.21016142 C0.87452235,9.21016142 1.06300587,9.08262827 1.06300587,8.92607765 L1.06371072,1.81911067 C1.06371072,1.66254787 0.874504276,1.5350269 0.641543052,1.5350269 Z" id="Fill-2"></path>
                        <path d="M2.44016046,0.290222125 L2.44016046,10.4549662 C2.44016046,10.6153973 2.62952512,10.7451883 2.86197571,10.7451883 C3.09514982,10.7451883 3.28379095,10.6148995 3.28379095,10.4549662 L3.28379095,0.290721178 C3.28379095,0.130290071 3.09513173,1.3689723e-05 2.86197571,1.3689723e-05 C2.6288016,8.94134586e-14 2.44016046,0.130288826 2.44016046,0.290222125 Z" id="Fill-3"></path>
                    </g>
                    <g id="Group-3" transform="translate(20.939693, 31.157980) rotate(-20.000000) translate(-20.939693, -31.157980) translate(18.939693, 25.657980)">
                        <path d="M0.641543052,1.5350269 C0.408563755,1.5350269 0.220080232,1.66256005 0.220080232,1.81911067 L0.220080232,8.92607765 C0.220080232,9.08311555 0.409286676,9.21016142 0.641543052,9.21016142 C0.87452235,9.21016142 1.06300587,9.08262827 1.06300587,8.92607765 L1.06371072,1.81911067 C1.06371072,1.66254787 0.874504276,1.5350269 0.641543052,1.5350269 Z" id="Fill-2"></path>
                        <path d="M2.44016046,0.290222125 L2.44016046,10.4549662 C2.44016046,10.6153973 2.62952512,10.7451883 2.86197571,10.7451883 C3.09514982,10.7451883 3.28379095,10.6148995 3.28379095,10.4549662 L3.28379095,0.290721178 C3.28379095,0.130290071 3.09513173,1.3689723e-05 2.86197571,1.3689723e-05 C2.6288016,8.94134722e-14 2.44016046,0.130288826 2.44016046,0.290222125 Z" id="Fill-3"></path>
                    </g>
                </g>
            </g>
        </g>
    </g>
</svg>