<?xml version="1.0" encoding="UTF-8"?>
<svg width="48px" height="52px" viewBox="0 0 48 52" version="1.1" xmlns="http://www.w3.org/2000/svg" xmlns:xlink="http://www.w3.org/1999/xlink">
    <!-- Generator: Sketch 44.1 (41455) - http://www.bohemiancoding.com/sketch -->
    <title>soundcontrol</title>
    <desc>Created with Sketch.</desc>
    <defs>
        <linearGradient x1="50%" y1="0%" x2="50%" y2="99.0214445%" id="linearGradient-1">
            <stop stop-color="#000000" stop-opacity="0" offset="0%"></stop>
            <stop stop-color="#000000" stop-opacity="0.02" offset="80%"></stop>
            <stop stop-color="#000000" stop-opacity="0.04" offset="100%"></stop>
        </linearGradient>
        <linearGradient x1="50%" y1="0%" x2="50%" y2="100%" id="linearGradient-2">
            <stop stop-color="#FFFFFF" stop-opacity="0.12" offset="0%"></stop>
            <stop stop-color="#FFFFFF" stop-opacity="0.06" offset="20%"></stop>
            <stop stop-color="#FFFFFF" stop-opacity="0" offset="100%"></stop>
        </linearGradient>
        <circle id="path-3" cx="20" cy="20" r="20"></circle>
        <filter x="-30.0%" y="-20.0%" width="160.0%" height="160.0%" filterUnits="objectBoundingBox" id="filter-4">
            <feOffset dx="0" dy="4" in="SourceAlpha" result="shadowOffsetOuter1"></feOffset>
            <feGaussianBlur stdDeviation="2" in="shadowOffsetOuter1" result="shadowBlurOuter1"></feGaussianBlur>
            <feComposite in="shadowBlurOuter1" in2="SourceAlpha" operator="out" result="shadowBlurOuter1"></feComposite>
            <feColorMatrix values="0 0 0 0 0   0 0 0 0 0   0 0 0 0 0  0 0 0 0.237601902 0" type="matrix" in="shadowBlurOuter1" result="shadowMatrixOuter1"></feColorMatrix>
            <feOffset dx="0" dy="0" in="SourceAlpha" result="shadowOffsetOuter2"></feOffset>
            <feGaussianBlur stdDeviation="2" in="shadowOffsetOuter2" result="shadowBlurOuter2"></feGaussianBlur>
            <feComposite in="shadowBlurOuter2" in2="SourceAlpha" operator="out" result="shadowBlurOuter2"></feComposite>
            <feColorMatrix values="0 0 0 0 0   0 0 0 0 0   0 0 0 0 0  0 0 0 0.12 0" type="matrix" in="shadowBlurOuter2" result="shadowMatrixOuter2"></feColorMatrix>
            <feMerge>
                <feMergeNode in="shadowMatrixOuter1"></feMergeNode>
                <feMergeNode in="shadowMatrixOuter2"></feMergeNode>
            </feMerge>
        </filter>
    </defs>
    <g id="If-Responsive" stroke="none" stroke-width="1" fill="none" fill-rule="evenodd">
        <g id="1366x768_shareselected" transform="translate(-940.000000, -140.000000)">
            <g id="soundcontrol" transform="translate(944.000000, 144.000000)">
                <g id="knob">
                    <use fill="black" fill-opacity="1" filter="url(#filter-4)" xlink:href="#path-3"></use>
                    <use fill="#3AD3AA" fill-rule="evenodd" xlink:href="#path-3"></use>
                    <circle stroke="url(#linearGradient-1)" stroke-width="1" cx="20" cy="20" r="19.5"></circle>
                    <circle stroke="url(#linearGradient-2)" stroke-width="1" cx="20" cy="20" r="19.5"></circle>
                </g>
                <g id="Page-1" transform="translate(8.000000, 9.000000)" fill="#FFFFFF">
                    <path d="M12.8756631,6.28571429 C12.4384064,6.28571429 12.0846596,6.57605061 12.0846596,6.93244684 L12.0833333,16.6389817 C12.0833333,16.9964873 12.4384369,17.2857143 12.8743369,17.2857143 C13.3115936,17.2857143 13.6653404,16.995378 13.6653404,16.6389817 L13.6666667,6.93244684 C13.6666667,6.57385971 13.3128859,6.28571429 12.8756631,6.28571429 Z" id="Fill-1"></path>
                    <path d="M17.0410052,3.14285714 C16.6037476,3.14285714 16.25,3.40397208 16.25,3.72449822 L16.25,18.2755018 C16.25,18.5970256 16.6051044,18.8571429 17.0410052,18.8571429 C17.4782629,18.8571429 17.8320105,18.5960279 17.8320105,18.2755018 L17.8333333,3.72449822 C17.8333333,3.40394714 17.478229,3.14285714 17.0410052,3.14285714 Z" id="Fill-2"></path>
                    <path d="M21.2083333,0 C20.77071,0 20.4166667,0.266756998 20.4166667,0.594208921 L20.4166667,21.4057911 C20.4166667,21.7342622 20.772068,22 21.2083333,22 C21.6459566,22 22,21.733243 22,21.4057911 L22,0.595230695 C22,0.266759546 21.6459227,2.80287227e-05 21.2083333,2.80287227e-05 L21.2083333,0 Z" id="Fill-3"></path>
                    <path d="M9.15269256,0.0441906059 C8.94220444,-0.047380626 8.70085114,0.00636759498 8.54180737,0.177564877 L3.1880601,5.98325946 L0.558485288,5.98325946 C0.24976171,5.98325946 0,6.2500131 0,6.5774609 L0,15.4596513 C0,15.7881183 0.250719661,16.0538527 0.558485288,16.0538527 L3.22182787,16.0538527 L8.54204685,21.8218364 C8.64869312,21.9372929 8.79370052,22 8.94151232,22 C9.01261142,22 9.08464453,21.9860653 9.15293444,21.9552107 C9.36342257,21.8636394 9.5,21.6466693 9.5,21.4047844 L9.5,0.595503542 C9.5,0.352645363 9.36248138,0.13665365 9.15293444,0.0440835885 L9.15269256,0.0441906059 Z" id="Fill-4"></path>
                </g>
            </g>
        </g>
    </g>
</svg>