<?xml version="1.0" encoding="UTF-8"?>
<svg width="391px" height="69px" viewBox="0 0 391 69" version="1.1" xmlns="http://www.w3.org/2000/svg" xmlns:xlink="http://www.w3.org/1999/xlink">
    <!-- Generator: Sketch 45 (43475) - http://www.bohemiancoding.com/sketch -->
    <title>Group 6</title>
    <desc>Created with Sketch.</desc>
    <defs></defs>
    <g id="Page-1" stroke="none" stroke-width="1" fill="none" fill-rule="evenodd">
        <g id="Artboard" transform="translate(-109.000000, -117.000000)">
            <g id="Group-6" transform="translate(109.000000, 117.000000)">
                <g id="Group-2">
                    <circle id="Oval-Copy" fill="#9B9B9B" cx="36" cy="36" r="33"></circle>
                    <rect id="Rectangle-6-Copy" fill="#9B9B9B" x="33" y="12" width="357.524609" height="49"></rect>
                    <rect id="Rectangle-6" fill="#FFFFFF" x="29" y="8" width="357.524609" height="49"></rect>
                    <circle id="Oval" fill="#FFFFFF" cx="33" cy="33" r="33"></circle>
                    <path d="M76.385,20.255 C76.9916697,20.255 77.5633306,20.3716655 78.1,20.605 C78.6366693,20.8383345 79.1033313,21.1533313 79.5,21.55 C79.8966686,21.9466686 80.2116655,22.4133306 80.445,22.95 C80.6783345,23.4866693 80.795,24.0583303 80.795,24.665 L80.795,25.995 C80.795,26.3216683 80.6433348,26.5316662 80.34,26.625 L77.155,27.465 C76.8516651,27.5583338 76.7,27.4416683 76.7,27.115 L76.7,24.84 C76.7,24.6066655 76.6183341,24.4083341 76.455,24.245 C76.2916658,24.0816658 76.0933345,24 75.86,24 L75.58,24 C75.3466655,24 75.1483341,24.0816658 74.985,24.245 C74.8216658,24.4083341 74.74,24.6066655 74.74,24.84 L74.74,28.025 C74.7633334,28.2816679 74.8099996,28.5033324 74.88,28.69 C74.9500003,28.8766676 75.0783324,29.0633324 75.265,29.25 L79.85,32.68 C80.2233352,33.0066683 80.4624995,33.339165 80.5675,33.6775 C80.6725005,34.015835 80.7483331,34.3949979 80.795,34.815 L80.795,40.835 C80.795,41.4416697 80.6783345,42.0133307 80.445,42.55 C80.2116655,43.0866694 79.8966686,43.5533314 79.5,43.95 C79.1033313,44.3466686 78.6366693,44.6616655 78.1,44.895 C77.5633306,45.1283345 76.9916697,45.245 76.385,45.245 L75.055,45.245 C74.4483303,45.245 73.8766693,45.1283345 73.34,44.895 C72.8033306,44.6616655 72.3366686,44.3466686 71.94,43.95 C71.5433313,43.5533314 71.2283345,43.0866694 70.995,42.55 C70.7616655,42.0133307 70.645,41.4416697 70.645,40.835 L70.645,37.475 C70.645,37.1483317 70.7966651,36.9383338 71.1,36.845 L74.285,36.005 C74.5883348,35.9116662 74.74,36.0283317 74.74,36.355 L74.74,40.66 C74.74,40.8933345 74.8216658,41.0916658 74.985,41.255 C75.1483341,41.4183341 75.3466655,41.5 75.58,41.5 L75.86,41.5 C76.0933345,41.5 76.2916658,41.4183341 76.455,41.255 C76.6183341,41.0916658 76.7,40.8933345 76.7,40.66 L76.7,36.04 C76.6766665,35.7366652 76.6300003,35.4683345 76.56,35.235 C76.4899996,35.0016655 76.350001,34.7916676 76.14,34.605 L71.625,31.14 C71.2749982,30.8133317 71.0241674,30.4866683 70.8725,30.16 C70.7208326,29.8333317 70.645,29.4016693 70.645,28.865 L70.645,24.665 C70.645,24.0583303 70.7616655,23.4866693 70.995,22.95 C71.2283345,22.4133306 71.5433313,21.9466686 71.94,21.55 C72.3366686,21.1533313 72.8033306,20.8383345 73.34,20.605 C73.8766693,20.3716655 74.4483303,20.255 75.055,20.255 L76.385,20.255 Z M93.22,40.835 C93.22,41.4416697 93.1033345,42.0133307 92.87,42.55 C92.6366655,43.0866694 92.3216686,43.5533314 91.925,43.95 C91.5283313,44.3466686 91.0616693,44.6616655 90.525,44.895 C89.9883306,45.1283345 89.4166697,45.245 88.81,45.245 L87.48,45.245 C86.8733303,45.245 86.3016693,45.1283345 85.765,44.895 C85.2283306,44.6616655 84.7616686,44.3466686 84.365,43.95 C83.9683313,43.5533314 83.6533345,43.0866694 83.42,42.55 C83.1866655,42.0133307 83.07,41.4416697 83.07,40.835 L83.07,24.665 C83.07,24.0583303 83.1866655,23.4866693 83.42,22.95 C83.6533345,22.4133306 83.9683313,21.9466686 84.365,21.55 C84.7616686,21.1533313 85.2283306,20.8383345 85.765,20.605 C86.3016693,20.3716655 86.8733303,20.255 87.48,20.255 L88.81,20.255 C89.4166697,20.255 89.9883306,20.3716655 90.525,20.605 C91.0616693,20.8383345 91.5283313,21.1533313 91.925,21.55 C92.3216686,21.9466686 92.6366655,22.4133306 92.87,22.95 C93.1033345,23.4866693 93.22,24.0583303 93.22,24.665 L93.22,40.835 Z M89.125,24.84 C89.125,24.6066655 89.0433341,24.4083341 88.88,24.245 C88.7166658,24.0816658 88.5183345,24 88.285,24 L88.005,24 C87.7716655,24 87.5733341,24.0816658 87.41,24.245 C87.2466658,24.4083341 87.165,24.6066655 87.165,24.84 L87.165,40.66 C87.165,40.8933345 87.2466658,41.0916658 87.41,41.255 C87.5733341,41.4183341 87.7716655,41.5 88.005,41.5 L88.285,41.5 C88.5183345,41.5 88.7166658,41.4183341 88.88,41.255 C89.0433341,41.0916658 89.125,40.8933345 89.125,40.66 L89.125,24.84 Z M105.33,20.5 C105.656668,20.5 105.82,20.6633317 105.82,20.99 L105.82,40.835 C105.82,41.4416697 105.703334,42.0133307 105.47,42.55 C105.236665,43.0866694 104.921669,43.5533314 104.525,43.95 C104.128331,44.3466686 103.661669,44.6616655 103.125,44.895 C102.588331,45.1283345 102.01667,45.245 101.41,45.245 L100.08,45.245 C99.4733303,45.245 98.9016693,45.1283345 98.365,44.895 C97.8283306,44.6616655 97.3616686,44.3466686 96.965,43.95 C96.5683313,43.5533314 96.2533345,43.0866694 96.02,42.55 C95.7866655,42.0133307 95.67,41.4416697 95.67,40.835 L95.67,20.99 C95.67,20.6633317 95.8333317,20.5 96.16,20.5 L99.275,20.5 C99.6016683,20.5 99.765,20.6633317 99.765,20.99 L99.765,40.66 C99.765,40.8933345 99.8466658,41.0916658 100.01,41.255 C100.173334,41.4183341 100.371665,41.5 100.605,41.5 L100.885,41.5 C101.118334,41.5 101.316666,41.4183341 101.48,41.255 C101.643334,41.0916658 101.725,40.8933345 101.725,40.66 L101.725,20.99 C101.725,20.6633317 101.888332,20.5 102.215,20.5 L105.33,20.5 Z M119.33,20.5 C119.656668,20.5 119.82,20.6633317 119.82,20.99 L119.82,44.51 C119.82,44.8366683 119.656668,45 119.33,45 L117.09,45 C116.949999,45 116.815834,44.9533338 116.6875,44.86 C116.559166,44.7666662 116.471667,44.6616672 116.425,44.545 L112.715,32.96 L112.715,44.51 C112.715,44.8366683 112.551668,45 112.225,45 L109.11,45 C108.783332,45 108.62,44.8366683 108.62,44.51 L108.62,20.99 C108.62,20.6633317 108.783332,20.5 109.11,20.5 L111.42,20.5 C111.560001,20.5 111.694166,20.5466662 111.8225,20.64 C111.950834,20.7333338 112.038333,20.8383327 112.085,20.955 L115.725,32.19 L115.725,20.99 C115.725,20.6633317 115.888332,20.5 116.215,20.5 L119.33,20.5 Z M128.71,20.5 C129.31667,20.5 129.888331,20.6166655 130.425,20.85 C130.961669,21.0833345 131.428331,21.3983314 131.825,21.795 C132.221669,22.1916687 132.536665,22.6583306 132.77,23.195 C133.003334,23.7316693 133.12,24.3033303 133.12,24.91 L133.12,40.59 C133.12,41.1966697 133.003334,41.7683306 132.77,42.305 C132.536665,42.8416694 132.221669,43.3083314 131.825,43.705 C131.428331,44.1016686 130.961669,44.4166655 130.425,44.65 C129.888331,44.8833345 129.31667,45 128.71,45 L123.46,45 C123.133332,45 122.97,44.8366683 122.97,44.51 L122.97,20.99 C122.97,20.6633317 123.133332,20.5 123.46,20.5 L128.71,20.5 Z M129.025,25.085 C129.025,24.8516655 128.943334,24.6533341 128.78,24.49 C128.616666,24.3266658 128.418334,24.245 128.185,24.245 L127.065,24.245 L127.065,41.255 L128.185,41.255 C128.418334,41.255 128.616666,41.1733342 128.78,41.01 C128.943334,40.8466659 129.025,40.6483345 129.025,40.415 L129.025,25.085 Z M150.34,40.835 C150.34,41.4416697 150.223334,42.0133307 149.99,42.55 C149.756665,43.0866694 149.441669,43.5533314 149.045,43.95 C148.648331,44.3466686 148.181669,44.6616655 147.645,44.895 C147.108331,45.1283345 146.53667,45.245 145.93,45.245 L144.6,45.245 C143.99333,45.245 143.421669,45.1283345 142.885,44.895 C142.348331,44.6616655 141.881669,44.3466686 141.485,43.95 C141.088331,43.5533314 140.773334,43.0866694 140.54,42.55 C140.306665,42.0133307 140.19,41.4416697 140.19,40.835 L140.19,24.665 C140.19,24.0583303 140.306665,23.4866693 140.54,22.95 C140.773334,22.4133306 141.088331,21.9466686 141.485,21.55 C141.881669,21.1533313 142.348331,20.8383345 142.885,20.605 C143.421669,20.3716655 143.99333,20.255 144.6,20.255 L145.93,20.255 C146.53667,20.255 147.108331,20.3716655 147.645,20.605 C148.181669,20.8383345 148.648331,21.1533313 149.045,21.55 C149.441669,21.9466686 149.756665,22.4133306 149.99,22.95 C150.223334,23.4866693 150.34,24.0583303 150.34,24.665 L150.34,40.835 Z M146.245,24.84 C146.245,24.6066655 146.163334,24.4083341 146,24.245 C145.836666,24.0816658 145.638334,24 145.405,24 L145.125,24 C144.891665,24 144.693334,24.0816658 144.53,24.245 C144.366666,24.4083341 144.285,24.6066655 144.285,24.84 L144.285,40.66 C144.285,40.8933345 144.366666,41.0916658 144.53,41.255 C144.693334,41.4183341 144.891665,41.5 145.125,41.5 L145.405,41.5 C145.638334,41.5 145.836666,41.4183341 146,41.255 C146.163334,41.0916658 146.245,40.8933345 146.245,40.66 L146.245,24.84 Z M161.225,20.5 C161.551668,20.5 161.715,20.6633317 161.715,20.99 L161.715,24.105 C161.715,24.4316683 161.551668,24.595 161.225,24.595 L157.235,24.595 L157.235,29.635 L160.7,29.635 C161.026668,29.635 161.19,29.7983317 161.19,30.125 L161.19,33.24 C161.19,33.5666683 161.026668,33.73 160.7,33.73 L157.235,33.73 L157.235,44.51 C157.235,44.8366683 157.071668,45 156.745,45 L153.63,45 C153.303332,45 153.14,44.8366683 153.14,44.51 L153.14,20.99 C153.14,20.6633317 153.303332,20.5 153.63,20.5 L161.225,20.5 Z M172.425,20.5 C172.751668,20.5 172.915,20.6633317 172.915,20.99 L172.915,24.105 C172.915,24.4316683 172.751668,24.595 172.425,24.595 L168.435,24.595 L168.435,29.635 L171.9,29.635 C172.226668,29.635 172.39,29.7983317 172.39,30.125 L172.39,33.24 C172.39,33.5666683 172.226668,33.73 171.9,33.73 L168.435,33.73 L168.435,44.51 C168.435,44.8366683 168.271668,45 167.945,45 L164.83,45 C164.503332,45 164.34,44.8366683 164.34,44.51 L164.34,20.99 C164.34,20.6633317 164.503332,20.5 164.83,20.5 L172.425,20.5 Z M188.98,20.5 C189.306668,20.5 189.47,20.6633317 189.47,20.99 L189.47,24.105 C189.47,24.4316683 189.306668,24.595 188.98,24.595 L186.495,24.595 L186.495,44.51 C186.495,44.8366683 186.331668,45 186.005,45 L182.89,45 C182.773333,45 182.662501,44.9533338 182.5575,44.86 C182.452499,44.7666662 182.4,44.6500007 182.4,44.51 L182.4,24.595 L179.95,24.595 C179.623332,24.595 179.46,24.4316683 179.46,24.105 L179.46,20.99 C179.46,20.6633317 179.623332,20.5 179.95,20.5 L188.98,20.5 Z M201.72,40.835 C201.72,41.4416697 201.603335,42.0133307 201.37,42.55 C201.136665,43.0866694 200.821669,43.5533314 200.425,43.95 C200.028331,44.3466686 199.561669,44.6616655 199.025,44.895 C198.488331,45.1283345 197.91667,45.245 197.31,45.245 L195.98,45.245 C195.37333,45.245 194.801669,45.1283345 194.265,44.895 C193.728331,44.6616655 193.261669,44.3466686 192.865,43.95 C192.468331,43.5533314 192.153334,43.0866694 191.92,42.55 C191.686665,42.0133307 191.57,41.4416697 191.57,40.835 L191.57,24.665 C191.57,24.0583303 191.686665,23.4866693 191.92,22.95 C192.153334,22.4133306 192.468331,21.9466686 192.865,21.55 C193.261669,21.1533313 193.728331,20.8383345 194.265,20.605 C194.801669,20.3716655 195.37333,20.255 195.98,20.255 L197.31,20.255 C197.91667,20.255 198.488331,20.3716655 199.025,20.605 C199.561669,20.8383345 200.028331,21.1533313 200.425,21.55 C200.821669,21.9466686 201.136665,22.4133306 201.37,22.95 C201.603335,23.4866693 201.72,24.0583303 201.72,24.665 L201.72,40.835 Z M197.625,24.84 C197.625,24.6066655 197.543334,24.4083341 197.38,24.245 C197.216666,24.0816658 197.018334,24 196.785,24 L196.505,24 C196.271665,24 196.073334,24.0816658 195.91,24.245 C195.746666,24.4083341 195.665,24.6066655 195.665,24.84 L195.665,40.66 C195.665,40.8933345 195.746666,41.0916658 195.91,41.255 C196.073334,41.4183341 196.271665,41.5 196.505,41.5 L196.785,41.5 C197.018334,41.5 197.216666,41.4183341 197.38,41.255 C197.543334,41.0916658 197.625,40.8933345 197.625,40.66 L197.625,24.84 Z M220.62,20.5 C220.760001,20.5 220.853333,20.5524995 220.9,20.6575 C220.946667,20.7625005 220.946667,20.8733327 220.9,20.99 L216.21,31.315 L220.83,44.51 C220.876667,44.6266672 220.865,44.7374995 220.795,44.8425 C220.725,44.9475005 220.620001,45 220.48,45 L217.015,45 C216.874999,45 216.746667,44.9591671 216.63,44.8775 C216.513333,44.7958329 216.431667,44.6966673 216.385,44.58 L213.83,36.67 L213.235,38.14 L213.235,44.51 C213.235,44.8366683 213.071668,45 212.745,45 L209.63,45 C209.303332,45 209.14,44.8366683 209.14,44.51 L209.14,20.99 C209.14,20.6633317 209.303332,20.5 209.63,20.5 L212.745,20.5 C213.071668,20.5 213.235,20.6633317 213.235,20.99 L213.235,28.515 L216.455,20.92 C216.571667,20.6399986 216.793332,20.5 217.12,20.5 L220.62,20.5 Z M231.33,40.905 C231.656668,40.905 231.82,41.0683317 231.82,41.395 L231.82,44.51 C231.82,44.8366683 231.656668,45 231.33,45 L223.735,45 C223.408332,45 223.245,44.8366683 223.245,44.51 L223.245,20.99 C223.245,20.6633317 223.408332,20.5 223.735,20.5 L231.33,20.5 C231.656668,20.5 231.82,20.6633317 231.82,20.99 L231.82,24.105 C231.82,24.4316683 231.656668,24.595 231.33,24.595 L227.34,24.595 L227.34,29.635 L230.805,29.635 C231.131668,29.635 231.295,29.7983317 231.295,30.125 L231.295,33.24 C231.295,33.5666683 231.131668,33.73 230.805,33.73 L227.34,33.73 L227.34,40.905 L231.33,40.905 Z M242.88,40.905 C243.206668,40.905 243.37,41.0683317 243.37,41.395 L243.37,44.51 C243.37,44.8366683 243.206668,45 242.88,45 L235.285,45 C234.958332,45 234.795,44.8366683 234.795,44.51 L234.795,20.99 C234.795,20.6633317 234.958332,20.5 235.285,20.5 L242.88,20.5 C243.206668,20.5 243.37,20.6633317 243.37,20.99 L243.37,24.105 C243.37,24.4316683 243.206668,24.595 242.88,24.595 L238.89,24.595 L238.89,29.635 L242.355,29.635 C242.681668,29.635 242.845,29.7983317 242.845,30.125 L242.845,33.24 C242.845,33.5666683 242.681668,33.73 242.355,33.73 L238.89,33.73 L238.89,40.905 L242.88,40.905 Z M252.085,20.5 C252.69167,20.5 253.263331,20.6166655 253.8,20.85 C254.336669,21.0833345 254.803331,21.3983314 255.2,21.795 C255.596669,22.1916687 255.911666,22.6583306 256.145,23.195 C256.378334,23.7316693 256.495,24.3033303 256.495,24.91 L256.495,30.615 C256.495,31.2216697 256.378334,31.7933306 256.145,32.33 C255.911666,32.8666693 255.596669,33.3333313 255.2,33.73 C254.803331,34.1266686 254.336669,34.4416655 253.8,34.675 C253.263331,34.9083345 252.69167,35.025 252.085,35.025 L250.44,35.025 L250.44,44.51 C250.44,44.8366683 250.276668,45 249.95,45 L246.835,45 C246.508332,45 246.345,44.8366683 246.345,44.51 L246.345,20.99 C246.345,20.6633317 246.508332,20.5 246.835,20.5 L252.085,20.5 Z M252.4,25.085 C252.4,24.8516655 252.318334,24.6533341 252.155,24.49 C251.991666,24.3266658 251.793334,24.245 251.56,24.245 L250.44,24.245 L250.44,31.28 L251.56,31.28 C251.793334,31.28 251.991666,31.1983342 252.155,31.035 C252.318334,30.8716658 252.4,30.6733345 252.4,30.44 L252.4,25.085 Z M267.485,44.51 C267.485,44.8366683 267.321668,45 266.995,45 L263.88,45 C263.553332,45 263.39,44.8366683 263.39,44.51 L263.39,20.99 C263.39,20.6633317 263.553332,20.5 263.88,20.5 L266.995,20.5 C267.321668,20.5 267.485,20.6633317 267.485,20.99 L267.485,44.51 Z M279.455,20.5 C279.781668,20.5 279.945,20.6633317 279.945,20.99 L279.945,24.105 C279.945,24.4316683 279.781668,24.595 279.455,24.595 L276.97,24.595 L276.97,44.51 C276.97,44.8366683 276.806668,45 276.48,45 L273.365,45 C273.248333,45 273.137501,44.9533338 273.0325,44.86 C272.927499,44.7666662 272.875,44.6500007 272.875,44.51 L272.875,24.595 L270.425,24.595 C270.098332,24.595 269.935,24.4316683 269.935,24.105 L269.935,20.99 C269.935,20.6633317 270.098332,20.5 270.425,20.5 L279.455,20.5 Z M300.175,20.5 C300.501668,20.5 300.665,20.6633317 300.665,20.99 L300.665,44.51 C300.665,44.8366683 300.501668,45 300.175,45 L296.815,45 C296.488332,45 296.325,44.8366683 296.325,44.51 L296.325,33.45 L294.015,42.48 C293.968333,42.5966672 293.91,42.655 293.84,42.655 C293.77,42.655 293.711667,42.5966672 293.665,42.48 L291.355,33.45 L291.355,44.51 C291.355,44.8366683 291.191668,45 290.865,45 L287.505,45 C287.178332,45 287.015,44.8366683 287.015,44.51 L287.015,20.99 C287.015,20.6633317 287.178332,20.5 287.505,20.5 L290.48,20.5 C290.620001,20.5 290.742499,20.5524995 290.8475,20.6575 C290.952501,20.7625005 291.028333,20.8733327 291.075,20.99 L293.84,33.52 L296.605,20.99 C296.651667,20.8733327 296.727499,20.7625005 296.8325,20.6575 C296.937501,20.5524995 297.059999,20.5 297.2,20.5 L300.175,20.5 Z M311.9,40.905 C312.226668,40.905 312.39,41.0683317 312.39,41.395 L312.39,44.51 C312.39,44.8366683 312.226668,45 311.9,45 L304.305,45 C303.978332,45 303.815,44.8366683 303.815,44.51 L303.815,20.99 C303.815,20.6633317 303.978332,20.5 304.305,20.5 L311.9,20.5 C312.226668,20.5 312.39,20.6633317 312.39,20.99 L312.39,24.105 C312.39,24.4316683 312.226668,24.595 311.9,24.595 L307.91,24.595 L307.91,29.635 L311.375,29.635 C311.701668,29.635 311.865,29.7983317 311.865,30.125 L311.865,33.24 C311.865,33.5666683 311.701668,33.73 311.375,33.73 L307.91,33.73 L307.91,40.905 L311.9,40.905 Z M323.975,40.905 C324.301668,40.905 324.465,41.0683317 324.465,41.395 L324.465,44.51 C324.465,44.8366683 324.301668,45 323.975,45 L316.03,45 C315.703332,45 315.54,44.8366683 315.54,44.51 L315.54,20.99 C315.54,20.6633317 315.703332,20.5 316.03,20.5 L319.145,20.5 C319.471668,20.5 319.635,20.6633317 319.635,20.99 L319.635,40.905 L323.975,40.905 Z M335.525,40.905 C335.851668,40.905 336.015,41.0683317 336.015,41.395 L336.015,44.51 C336.015,44.8366683 335.851668,45 335.525,45 L327.58,45 C327.253332,45 327.09,44.8366683 327.09,44.51 L327.09,20.99 C327.09,20.6633317 327.253332,20.5 327.58,20.5 L330.695,20.5 C331.021668,20.5 331.185,20.6633317 331.185,20.99 L331.185,40.905 L335.525,40.905 Z M348.265,40.835 C348.265,41.4416697 348.148335,42.0133307 347.915,42.55 C347.681666,43.0866694 347.366669,43.5533314 346.97,43.95 C346.573331,44.3466686 346.106669,44.6616655 345.57,44.895 C345.033331,45.1283345 344.46167,45.245 343.855,45.245 L342.525,45.245 C341.91833,45.245 341.346669,45.1283345 340.81,44.895 C340.273331,44.6616655 339.806669,44.3466686 339.41,43.95 C339.013331,43.5533314 338.698335,43.0866694 338.465,42.55 C338.231666,42.0133307 338.115,41.4416697 338.115,40.835 L338.115,24.665 C338.115,24.0583303 338.231666,23.4866693 338.465,22.95 C338.698335,22.4133306 339.013331,21.9466686 339.41,21.55 C339.806669,21.1533313 340.273331,20.8383345 340.81,20.605 C341.346669,20.3716655 341.91833,20.255 342.525,20.255 L343.855,20.255 C344.46167,20.255 345.033331,20.3716655 345.57,20.605 C346.106669,20.8383345 346.573331,21.1533313 346.97,21.55 C347.366669,21.9466686 347.681666,22.4133306 347.915,22.95 C348.148335,23.4866693 348.265,24.0583303 348.265,24.665 L348.265,40.835 Z M344.17,24.84 C344.17,24.6066655 344.088334,24.4083341 343.925,24.245 C343.761666,24.0816658 343.563335,24 343.33,24 L343.05,24 C342.816666,24 342.618334,24.0816658 342.455,24.245 C342.291666,24.4083341 342.21,24.6066655 342.21,24.84 L342.21,40.66 C342.21,40.8933345 342.291666,41.0916658 342.455,41.255 C342.618334,41.4183341 342.816666,41.5 343.05,41.5 L343.33,41.5 C343.563335,41.5 343.761666,41.4183341 343.925,41.255 C344.088334,41.0916658 344.17,40.8933345 344.17,40.66 L344.17,24.84 Z M368.6,20.5 C368.926668,20.5 369.066667,20.6633317 369.02,20.99 L364.89,44.51 C364.843333,44.8366683 364.656668,45 364.33,45 L361.25,45 C360.923332,45 360.736667,44.8366683 360.69,44.51 L359.465,35.795 L359.43,35.795 L358.205,44.51 C358.158333,44.8366683 357.971668,45 357.645,45 L354.565,45 C354.238332,45 354.051667,44.8366683 354.005,44.51 L349.875,20.99 C349.828333,20.6633317 349.968332,20.5 350.295,20.5 L354.075,20.5 C354.378335,20.5 354.553333,20.6633317 354.6,20.99 L356.175,35.27 L356.315,35.27 L357.505,20.99 C357.551667,20.6633317 357.726665,20.5 358.03,20.5 L360.865,20.5 C361.168335,20.5 361.343333,20.6633317 361.39,20.99 L362.58,35.27 L362.72,35.27 L364.295,20.99 C364.341667,20.6633317 364.516665,20.5 364.82,20.5 L368.6,20.5 Z" id="SOUND-OFF-TO-KEEP-IT" fill="#9B9B9B"></path>
                    <g id="Group-4" transform="translate(11.000000, 12.000000)" fill="#9B9B9B">
                        <path d="M38,21.5 C38,12.425 30.575,5 21.5,5 C12.425,5 5,12.425 5,21.5 C5,24.14 5.66,26.615 6.815,28.925 C6.65,29.255 6.65,29.42 6.65,29.75 C6.65,31.565 8.135,33.05 9.95,33.05 C9.95,34.04 10.61,34.7 11.6,34.7 L11.6,36.35 C11.6,37.34 12.26,38 13.25,38 C14.24,38 14.9,37.34 14.9,36.35 L14.9,23.15 C14.9,22.16 14.24,21.5 13.25,21.5 C12.26,21.5 11.6,22.16 11.6,23.15 L11.6,24.8 C10.61,24.8 9.95,25.46 9.95,26.45 L9.29,26.45 C8.63,24.8 8.3,23.15 8.3,21.5 C8.3,14.24 14.24,8.3 21.5,8.3 C28.76,8.3 34.7,14.24 34.7,21.5 C34.7,23.315 34.37,24.965 33.71,26.45 L33.05,26.45 C33.05,25.46 32.39,24.8 31.4,24.8 L31.4,23.15 C31.4,22.16 30.74,21.5 29.75,21.5 C28.76,21.5 28.1,22.16 28.1,23.15 L28.1,36.35 C28.1,37.34 28.76,38 29.75,38 C30.74,38 31.4,37.34 31.4,36.35 L31.4,34.7 C32.39,34.7 33.05,34.04 33.05,33.05 C34.865,33.05 36.35,31.565 36.35,29.75 C36.35,29.42 36.35,29.255 36.185,28.925 C37.34,26.615 38,24.14 38,21.5 Z" id="Page-1" transform="translate(21.500000, 21.500000) rotate(-20.000000) translate(-21.500000, -21.500000) "></path>
                    </g>
                </g>
            </g>
        </g>
    </g>
</svg>