<?xml version="1.0" encoding="UTF-8"?>
<svg width="34px" height="29px" viewBox="0 0 34 29" version="1.1" xmlns="http://www.w3.org/2000/svg" xmlns:xlink="http://www.w3.org/1999/xlink">
    <!-- Generator: Sketch 44.1 (41455) - http://www.bohemiancoding.com/sketch -->
    <title>Twitter</title>
    <desc>Created with Sketch.</desc>
    <defs></defs>
    <g id="If-Responsive" stroke="none" stroke-width="1" fill="none" fill-rule="evenodd" stroke-linecap="round" stroke-linejoin="round">
        <g id="1366x768_shareselected" transform="translate(-566.000000, -461.000000)" stroke="#000000" stroke-width="2">
            <g id="sharepopup" transform="translate(503.000000, 436.000000)">
                <path d="M92.9467332,33.5558458 C92.9495522,33.6657068 92.951,33.7654198 92.951,33.862 C92.951,43.6957795 85.3029878,52.362 74.429,52.362 C70.851938,52.362 67.4133084,51.3327725 64.4589299,49.4319775 L60.7444521,47.042148 L65.1260694,47.5989786 C65.5660225,47.6548893 66.0139656,47.683 66.47,47.683 C68.247092,47.683 69.9638107,47.2758389 71.5063825,46.5160796 C69.589517,45.7264115 68.0670982,44.1243141 67.407737,42.0903808 L66.8907071,40.4954972 L67.1481974,40.5428051 C65.9360594,39.2560113 65.201,37.5263966 65.201,35.65 L65.2087221,35.5259653 L65.4021652,33.9784207 L65.9448423,34.2791815 C65.5020914,33.341354 65.261,32.3014611 65.261,31.221 C65.261,29.9369267 65.5956724,28.7104858 66.2268769,27.6267195 L66.9539453,26.3783568 L67.8663295,27.498443 C70.5481905,30.7908234 74.3910247,32.9327029 78.6276961,33.4495603 C78.6239012,33.3500219 78.622,33.2501397 78.622,33.15 C78.622,29.2055507 81.8228742,26 85.77,26 C87.5744988,26 89.2756788,26.6741391 90.5745871,27.8555318 C91.6684613,27.5851509 92.7069254,27.159059 93.6586283,26.5912362 L95.9268619,25.2379203 L95.1236388,27.754104 C94.9881518,28.1785318 94.8142833,28.5860225 94.605612,28.9724137 L97.7802928,27.5624056 L95.8297158,30.4506697 C95.0331408,31.6301765 94.0593841,32.6791139 92.9467332,33.5558458 Z" id="Twitter"></path>
            </g>
        </g>
    </g>
</svg>